<?xml version="1.0" encoding="utf-8" standalone="no"?>
<!DOCTYPE svg PUBLIC "-//W3C//DTD SVG 1.1//EN"
  "http://www.w3.org/Graphics/SVG/1.1/DTD/svg11.dtd">
<svg xmlns:xlink="http://www.w3.org/1999/xlink" width="1152pt" height="576pt" viewBox="0 0 1152 576" xmlns="http://www.w3.org/2000/svg" version="1.1">
 <metadata>
  <rdf:RDF xmlns:dc="http://purl.org/dc/elements/1.1/" xmlns:cc="http://creativecommons.org/ns#" xmlns:rdf="http://www.w3.org/1999/02/22-rdf-syntax-ns#">
   <cc:Work>
    <dc:type rdf:resource="http://purl.org/dc/dcmitype/StillImage"/>
    <dc:date>2024-03-24T23:07:02.051754</dc:date>
    <dc:format>image/svg+xml</dc:format>
    <dc:creator>
     <cc:Agent>
      <dc:title>Matplotlib v3.7.1, https://matplotlib.org/</dc:title>
     </cc:Agent>
    </dc:creator>
   </cc:Work>
  </rdf:RDF>
 </metadata>
 <defs>
  <style type="text/css">*{stroke-linejoin: round; stroke-linecap: butt}</style>
 </defs>
 <g id="figure_1">
  <g id="patch_1">
   <path d="M 0 576 
L 1152 576 
L 1152 0 
L 0 0 
z
" style="fill: #ffffff"/>
  </g>
  <g id="axes_1">
   <g id="patch_2">
    <path d="M 144 512.64 
L 1036.8 512.64 
L 1036.8 69.12 
L 144 69.12 
z
" style="fill: #eaeaf2"/>
   </g>
   <g id="matplotlib.axis_1">
    <g id="xtick_1">
     <g id="text_1">
      <!-- 2005 -->
      <g style="fill: #262626" transform="translate(219.2825 530.498281) scale(0.11 -0.11)">
       <defs>
        <path id="DejaVuSans-32" d="M 1228 531 
L 3431 531 
L 3431 0 
L 469 0 
L 469 531 
Q 828 903 1448 1529 
Q 2069 2156 2228 2338 
Q 2531 2678 2651 2914 
Q 2772 3150 2772 3378 
Q 2772 3750 2511 3984 
Q 2250 4219 1831 4219 
Q 1534 4219 1204 4116 
Q 875 4013 500 3803 
L 500 4441 
Q 881 4594 1212 4672 
Q 1544 4750 1819 4750 
Q 2544 4750 2975 4387 
Q 3406 4025 3406 3419 
Q 3406 3131 3298 2873 
Q 3191 2616 2906 2266 
Q 2828 2175 2409 1742 
Q 1991 1309 1228 531 
z
" transform="scale(0.015625)"/>
        <path id="DejaVuSans-30" d="M 2034 4250 
Q 1547 4250 1301 3770 
Q 1056 3291 1056 2328 
Q 1056 1369 1301 889 
Q 1547 409 2034 409 
Q 2525 409 2770 889 
Q 3016 1369 3016 2328 
Q 3016 3291 2770 3770 
Q 2525 4250 2034 4250 
z
M 2034 4750 
Q 2819 4750 3233 4129 
Q 3647 3509 3647 2328 
Q 3647 1150 3233 529 
Q 2819 -91 2034 -91 
Q 1250 -91 836 529 
Q 422 1150 422 2328 
Q 422 3509 836 4129 
Q 1250 4750 2034 4750 
z
" transform="scale(0.015625)"/>
        <path id="DejaVuSans-35" d="M 691 4666 
L 3169 4666 
L 3169 4134 
L 1269 4134 
L 1269 2991 
Q 1406 3038 1543 3061 
Q 1681 3084 1819 3084 
Q 2600 3084 3056 2656 
Q 3513 2228 3513 1497 
Q 3513 744 3044 326 
Q 2575 -91 1722 -91 
Q 1428 -91 1123 -41 
Q 819 9 494 109 
L 494 744 
Q 775 591 1075 516 
Q 1375 441 1709 441 
Q 2250 441 2565 725 
Q 2881 1009 2881 1497 
Q 2881 1984 2565 2268 
Q 2250 2553 1709 2553 
Q 1456 2553 1204 2497 
Q 953 2441 691 2322 
L 691 4666 
z
" transform="scale(0.015625)"/>
       </defs>
       <use xlink:href="#DejaVuSans-32"/>
       <use xlink:href="#DejaVuSans-30" x="63.623047"/>
       <use xlink:href="#DejaVuSans-30" x="127.246094"/>
       <use xlink:href="#DejaVuSans-35" x="190.869141"/>
      </g>
     </g>
    </g>
    <g id="xtick_2">
     <g id="text_2">
      <!-- 2008 -->
      <g style="fill: #262626" transform="translate(397.8425 530.498281) scale(0.11 -0.11)">
       <defs>
        <path id="DejaVuSans-38" d="M 2034 2216 
Q 1584 2216 1326 1975 
Q 1069 1734 1069 1313 
Q 1069 891 1326 650 
Q 1584 409 2034 409 
Q 2484 409 2743 651 
Q 3003 894 3003 1313 
Q 3003 1734 2745 1975 
Q 2488 2216 2034 2216 
z
M 1403 2484 
Q 997 2584 770 2862 
Q 544 3141 544 3541 
Q 544 4100 942 4425 
Q 1341 4750 2034 4750 
Q 2731 4750 3128 4425 
Q 3525 4100 3525 3541 
Q 3525 3141 3298 2862 
Q 3072 2584 2669 2484 
Q 3125 2378 3379 2068 
Q 3634 1759 3634 1313 
Q 3634 634 3220 271 
Q 2806 -91 2034 -91 
Q 1263 -91 848 271 
Q 434 634 434 1313 
Q 434 1759 690 2068 
Q 947 2378 1403 2484 
z
M 1172 3481 
Q 1172 3119 1398 2916 
Q 1625 2713 2034 2713 
Q 2441 2713 2670 2916 
Q 2900 3119 2900 3481 
Q 2900 3844 2670 4047 
Q 2441 4250 2034 4250 
Q 1625 4250 1398 4047 
Q 1172 3844 1172 3481 
z
" transform="scale(0.015625)"/>
       </defs>
       <use xlink:href="#DejaVuSans-32"/>
       <use xlink:href="#DejaVuSans-30" x="63.623047"/>
       <use xlink:href="#DejaVuSans-30" x="127.246094"/>
       <use xlink:href="#DejaVuSans-38" x="190.869141"/>
      </g>
     </g>
    </g>
    <g id="xtick_3">
     <g id="text_3">
      <!-- 2011 -->
      <g style="fill: #262626" transform="translate(576.4025 530.498281) scale(0.11 -0.11)">
       <defs>
        <path id="DejaVuSans-31" d="M 794 531 
L 1825 531 
L 1825 4091 
L 703 3866 
L 703 4441 
L 1819 4666 
L 2450 4666 
L 2450 531 
L 3481 531 
L 3481 0 
L 794 0 
L 794 531 
z
" transform="scale(0.015625)"/>
       </defs>
       <use xlink:href="#DejaVuSans-32"/>
       <use xlink:href="#DejaVuSans-30" x="63.623047"/>
       <use xlink:href="#DejaVuSans-31" x="127.246094"/>
       <use xlink:href="#DejaVuSans-31" x="190.869141"/>
      </g>
     </g>
    </g>
    <g id="xtick_4">
     <g id="text_4">
      <!-- 2014 -->
      <g style="fill: #262626" transform="translate(754.9625 530.498281) scale(0.11 -0.11)">
       <defs>
        <path id="DejaVuSans-34" d="M 2419 4116 
L 825 1625 
L 2419 1625 
L 2419 4116 
z
M 2253 4666 
L 3047 4666 
L 3047 1625 
L 3713 1625 
L 3713 1100 
L 3047 1100 
L 3047 0 
L 2419 0 
L 2419 1100 
L 313 1100 
L 313 1709 
L 2253 4666 
z
" transform="scale(0.015625)"/>
       </defs>
       <use xlink:href="#DejaVuSans-32"/>
       <use xlink:href="#DejaVuSans-30" x="63.623047"/>
       <use xlink:href="#DejaVuSans-31" x="127.246094"/>
       <use xlink:href="#DejaVuSans-34" x="190.869141"/>
      </g>
     </g>
    </g>
    <g id="xtick_5">
     <g id="text_5">
      <!-- 2017 -->
      <g style="fill: #262626" transform="translate(933.5225 530.498281) scale(0.11 -0.11)">
       <defs>
        <path id="DejaVuSans-37" d="M 525 4666 
L 3525 4666 
L 3525 4397 
L 1831 0 
L 1172 0 
L 2766 4134 
L 525 4134 
L 525 4666 
z
" transform="scale(0.015625)"/>
       </defs>
       <use xlink:href="#DejaVuSans-32"/>
       <use xlink:href="#DejaVuSans-30" x="63.623047"/>
       <use xlink:href="#DejaVuSans-31" x="127.246094"/>
       <use xlink:href="#DejaVuSans-37" x="190.869141"/>
      </g>
     </g>
    </g>
    <g id="text_6">
     <!-- Ano -->
     <g style="fill: #262626" transform="translate(576.892187 547.42375) scale(0.14 -0.14)">
      <defs>
       <path id="DejaVuSans-41" d="M 2188 4044 
L 1331 1722 
L 3047 1722 
L 2188 4044 
z
M 1831 4666 
L 2547 4666 
L 4325 0 
L 3669 0 
L 3244 1197 
L 1141 1197 
L 716 0 
L 50 0 
L 1831 4666 
z
" transform="scale(0.015625)"/>
       <path id="DejaVuSans-6e" d="M 3513 2113 
L 3513 0 
L 2938 0 
L 2938 2094 
Q 2938 2591 2744 2837 
Q 2550 3084 2163 3084 
Q 1697 3084 1428 2787 
Q 1159 2491 1159 1978 
L 1159 0 
L 581 0 
L 581 3500 
L 1159 3500 
L 1159 2956 
Q 1366 3272 1645 3428 
Q 1925 3584 2291 3584 
Q 2894 3584 3203 3211 
Q 3513 2838 3513 2113 
z
" transform="scale(0.015625)"/>
       <path id="DejaVuSans-6f" d="M 1959 3097 
Q 1497 3097 1228 2736 
Q 959 2375 959 1747 
Q 959 1119 1226 758 
Q 1494 397 1959 397 
Q 2419 397 2687 759 
Q 2956 1122 2956 1747 
Q 2956 2369 2687 2733 
Q 2419 3097 1959 3097 
z
M 1959 3584 
Q 2709 3584 3137 3096 
Q 3566 2609 3566 1747 
Q 3566 888 3137 398 
Q 2709 -91 1959 -91 
Q 1206 -91 779 398 
Q 353 888 353 1747 
Q 353 2609 779 3096 
Q 1206 3584 1959 3584 
z
" transform="scale(0.015625)"/>
      </defs>
      <use xlink:href="#DejaVuSans-41"/>
      <use xlink:href="#DejaVuSans-6e" x="68.408203"/>
      <use xlink:href="#DejaVuSans-6f" x="131.787109"/>
     </g>
    </g>
   </g>
   <g id="matplotlib.axis_2">
    <g id="ytick_1">
     <g id="line2d_1">
      <path d="M 144 512.64 
L 1036.8 512.64 
" clip-path="url(#pd2807aee6c)" style="fill: none; stroke: #ffffff; stroke-linecap: round"/>
     </g>
     <g id="text_7">
      <!-- 0 -->
      <g style="fill: #262626" transform="translate(127.50125 516.819141) scale(0.11 -0.11)">
       <use xlink:href="#DejaVuSans-30"/>
      </g>
     </g>
    </g>
    <g id="ytick_2">
     <g id="line2d_2">
      <path d="M 144 453.314157 
L 1036.8 453.314157 
" clip-path="url(#pd2807aee6c)" style="fill: none; stroke: #ffffff; stroke-linecap: round"/>
     </g>
     <g id="text_8">
      <!-- 250 -->
      <g style="fill: #262626" transform="translate(113.50375 457.493298) scale(0.11 -0.11)">
       <use xlink:href="#DejaVuSans-32"/>
       <use xlink:href="#DejaVuSans-35" x="63.623047"/>
       <use xlink:href="#DejaVuSans-30" x="127.246094"/>
      </g>
     </g>
    </g>
    <g id="ytick_3">
     <g id="line2d_3">
      <path d="M 144 393.988315 
L 1036.8 393.988315 
" clip-path="url(#pd2807aee6c)" style="fill: none; stroke: #ffffff; stroke-linecap: round"/>
     </g>
     <g id="text_9">
      <!-- 500 -->
      <g style="fill: #262626" transform="translate(113.50375 398.167455) scale(0.11 -0.11)">
       <use xlink:href="#DejaVuSans-35"/>
       <use xlink:href="#DejaVuSans-30" x="63.623047"/>
       <use xlink:href="#DejaVuSans-30" x="127.246094"/>
      </g>
     </g>
    </g>
    <g id="ytick_4">
     <g id="line2d_4">
      <path d="M 144 334.662472 
L 1036.8 334.662472 
" clip-path="url(#pd2807aee6c)" style="fill: none; stroke: #ffffff; stroke-linecap: round"/>
     </g>
     <g id="text_10">
      <!-- 750 -->
      <g style="fill: #262626" transform="translate(113.50375 338.841613) scale(0.11 -0.11)">
       <use xlink:href="#DejaVuSans-37"/>
       <use xlink:href="#DejaVuSans-35" x="63.623047"/>
       <use xlink:href="#DejaVuSans-30" x="127.246094"/>
      </g>
     </g>
    </g>
    <g id="ytick_5">
     <g id="line2d_5">
      <path d="M 144 275.336629 
L 1036.8 275.336629 
" clip-path="url(#pd2807aee6c)" style="fill: none; stroke: #ffffff; stroke-linecap: round"/>
     </g>
     <g id="text_11">
      <!-- 1.000 -->
      <g style="fill: #262626" transform="translate(103.009062 279.51577) scale(0.11 -0.11)">
       <defs>
        <path id="DejaVuSans-2e" d="M 684 794 
L 1344 794 
L 1344 0 
L 684 0 
L 684 794 
z
" transform="scale(0.015625)"/>
       </defs>
       <use xlink:href="#DejaVuSans-31"/>
       <use xlink:href="#DejaVuSans-2e" x="63.623047"/>
       <use xlink:href="#DejaVuSans-30" x="95.410156"/>
       <use xlink:href="#DejaVuSans-30" x="159.033203"/>
       <use xlink:href="#DejaVuSans-30" x="222.65625"/>
      </g>
     </g>
    </g>
    <g id="ytick_6">
     <g id="line2d_6">
      <path d="M 144 216.010787 
L 1036.8 216.010787 
" clip-path="url(#pd2807aee6c)" style="fill: none; stroke: #ffffff; stroke-linecap: round"/>
     </g>
     <g id="text_12">
      <!-- 1.250 -->
      <g style="fill: #262626" transform="translate(103.009062 220.189927) scale(0.11 -0.11)">
       <use xlink:href="#DejaVuSans-31"/>
       <use xlink:href="#DejaVuSans-2e" x="63.623047"/>
       <use xlink:href="#DejaVuSans-32" x="95.410156"/>
       <use xlink:href="#DejaVuSans-35" x="159.033203"/>
       <use xlink:href="#DejaVuSans-30" x="222.65625"/>
      </g>
     </g>
    </g>
    <g id="ytick_7">
     <g id="line2d_7">
      <path d="M 144 156.684944 
L 1036.8 156.684944 
" clip-path="url(#pd2807aee6c)" style="fill: none; stroke: #ffffff; stroke-linecap: round"/>
     </g>
     <g id="text_13">
      <!-- 1.500 -->
      <g style="fill: #262626" transform="translate(103.009062 160.864084) scale(0.11 -0.11)">
       <use xlink:href="#DejaVuSans-31"/>
       <use xlink:href="#DejaVuSans-2e" x="63.623047"/>
       <use xlink:href="#DejaVuSans-35" x="95.410156"/>
       <use xlink:href="#DejaVuSans-30" x="159.033203"/>
       <use xlink:href="#DejaVuSans-30" x="222.65625"/>
      </g>
     </g>
    </g>
    <g id="ytick_8">
     <g id="line2d_8">
      <path d="M 144 97.359101 
L 1036.8 97.359101 
" clip-path="url(#pd2807aee6c)" style="fill: none; stroke: #ffffff; stroke-linecap: round"/>
     </g>
     <g id="text_14">
      <!-- 1.750 -->
      <g style="fill: #262626" transform="translate(103.009062 101.538242) scale(0.11 -0.11)">
       <use xlink:href="#DejaVuSans-31"/>
       <use xlink:href="#DejaVuSans-2e" x="63.623047"/>
       <use xlink:href="#DejaVuSans-37" x="95.410156"/>
       <use xlink:href="#DejaVuSans-35" x="159.033203"/>
       <use xlink:href="#DejaVuSans-30" x="222.65625"/>
      </g>
     </g>
    </g>
    <g id="text_15">
     <!-- Número de Alunos de Química por Cor da Pele Declarada -->
     <g style="fill: #262626" transform="translate(96.0975 491.129219) rotate(-90) scale(0.14 -0.14)">
      <defs>
       <path id="DejaVuSans-4e" d="M 628 4666 
L 1478 4666 
L 3547 763 
L 3547 4666 
L 4159 4666 
L 4159 0 
L 3309 0 
L 1241 3903 
L 1241 0 
L 628 0 
L 628 4666 
z
" transform="scale(0.015625)"/>
       <path id="DejaVuSans-fa" d="M 544 1381 
L 544 3500 
L 1119 3500 
L 1119 1403 
Q 1119 906 1312 657 
Q 1506 409 1894 409 
Q 2359 409 2629 706 
Q 2900 1003 2900 1516 
L 2900 3500 
L 3475 3500 
L 3475 0 
L 2900 0 
L 2900 538 
Q 2691 219 2414 64 
Q 2138 -91 1772 -91 
Q 1169 -91 856 284 
Q 544 659 544 1381 
z
M 1991 3584 
L 1991 3584 
z
M 2418 5119 
L 3040 5119 
L 2022 3944 
L 1543 3944 
L 2418 5119 
z
" transform="scale(0.015625)"/>
       <path id="DejaVuSans-6d" d="M 3328 2828 
Q 3544 3216 3844 3400 
Q 4144 3584 4550 3584 
Q 5097 3584 5394 3201 
Q 5691 2819 5691 2113 
L 5691 0 
L 5113 0 
L 5113 2094 
Q 5113 2597 4934 2840 
Q 4756 3084 4391 3084 
Q 3944 3084 3684 2787 
Q 3425 2491 3425 1978 
L 3425 0 
L 2847 0 
L 2847 2094 
Q 2847 2600 2669 2842 
Q 2491 3084 2119 3084 
Q 1678 3084 1418 2786 
Q 1159 2488 1159 1978 
L 1159 0 
L 581 0 
L 581 3500 
L 1159 3500 
L 1159 2956 
Q 1356 3278 1631 3431 
Q 1906 3584 2284 3584 
Q 2666 3584 2933 3390 
Q 3200 3197 3328 2828 
z
" transform="scale(0.015625)"/>
       <path id="DejaVuSans-65" d="M 3597 1894 
L 3597 1613 
L 953 1613 
Q 991 1019 1311 708 
Q 1631 397 2203 397 
Q 2534 397 2845 478 
Q 3156 559 3463 722 
L 3463 178 
Q 3153 47 2828 -22 
Q 2503 -91 2169 -91 
Q 1331 -91 842 396 
Q 353 884 353 1716 
Q 353 2575 817 3079 
Q 1281 3584 2069 3584 
Q 2775 3584 3186 3129 
Q 3597 2675 3597 1894 
z
M 3022 2063 
Q 3016 2534 2758 2815 
Q 2500 3097 2075 3097 
Q 1594 3097 1305 2825 
Q 1016 2553 972 2059 
L 3022 2063 
z
" transform="scale(0.015625)"/>
       <path id="DejaVuSans-72" d="M 2631 2963 
Q 2534 3019 2420 3045 
Q 2306 3072 2169 3072 
Q 1681 3072 1420 2755 
Q 1159 2438 1159 1844 
L 1159 0 
L 581 0 
L 581 3500 
L 1159 3500 
L 1159 2956 
Q 1341 3275 1631 3429 
Q 1922 3584 2338 3584 
Q 2397 3584 2469 3576 
Q 2541 3569 2628 3553 
L 2631 2963 
z
" transform="scale(0.015625)"/>
       <path id="DejaVuSans-20" transform="scale(0.015625)"/>
       <path id="DejaVuSans-64" d="M 2906 2969 
L 2906 4863 
L 3481 4863 
L 3481 0 
L 2906 0 
L 2906 525 
Q 2725 213 2448 61 
Q 2172 -91 1784 -91 
Q 1150 -91 751 415 
Q 353 922 353 1747 
Q 353 2572 751 3078 
Q 1150 3584 1784 3584 
Q 2172 3584 2448 3432 
Q 2725 3281 2906 2969 
z
M 947 1747 
Q 947 1113 1208 752 
Q 1469 391 1925 391 
Q 2381 391 2643 752 
Q 2906 1113 2906 1747 
Q 2906 2381 2643 2742 
Q 2381 3103 1925 3103 
Q 1469 3103 1208 2742 
Q 947 2381 947 1747 
z
" transform="scale(0.015625)"/>
       <path id="DejaVuSans-6c" d="M 603 4863 
L 1178 4863 
L 1178 0 
L 603 0 
L 603 4863 
z
" transform="scale(0.015625)"/>
       <path id="DejaVuSans-75" d="M 544 1381 
L 544 3500 
L 1119 3500 
L 1119 1403 
Q 1119 906 1312 657 
Q 1506 409 1894 409 
Q 2359 409 2629 706 
Q 2900 1003 2900 1516 
L 2900 3500 
L 3475 3500 
L 3475 0 
L 2900 0 
L 2900 538 
Q 2691 219 2414 64 
Q 2138 -91 1772 -91 
Q 1169 -91 856 284 
Q 544 659 544 1381 
z
M 1991 3584 
L 1991 3584 
z
" transform="scale(0.015625)"/>
       <path id="DejaVuSans-73" d="M 2834 3397 
L 2834 2853 
Q 2591 2978 2328 3040 
Q 2066 3103 1784 3103 
Q 1356 3103 1142 2972 
Q 928 2841 928 2578 
Q 928 2378 1081 2264 
Q 1234 2150 1697 2047 
L 1894 2003 
Q 2506 1872 2764 1633 
Q 3022 1394 3022 966 
Q 3022 478 2636 193 
Q 2250 -91 1575 -91 
Q 1294 -91 989 -36 
Q 684 19 347 128 
L 347 722 
Q 666 556 975 473 
Q 1284 391 1588 391 
Q 1994 391 2212 530 
Q 2431 669 2431 922 
Q 2431 1156 2273 1281 
Q 2116 1406 1581 1522 
L 1381 1569 
Q 847 1681 609 1914 
Q 372 2147 372 2553 
Q 372 3047 722 3315 
Q 1072 3584 1716 3584 
Q 2034 3584 2315 3537 
Q 2597 3491 2834 3397 
z
" transform="scale(0.015625)"/>
       <path id="DejaVuSans-51" d="M 2522 4238 
Q 1834 4238 1429 3725 
Q 1025 3213 1025 2328 
Q 1025 1447 1429 934 
Q 1834 422 2522 422 
Q 3209 422 3611 934 
Q 4013 1447 4013 2328 
Q 4013 3213 3611 3725 
Q 3209 4238 2522 4238 
z
M 3406 84 
L 4238 -825 
L 3475 -825 
L 2784 -78 
Q 2681 -84 2626 -87 
Q 2572 -91 2522 -91 
Q 1538 -91 948 567 
Q 359 1225 359 2328 
Q 359 3434 948 4092 
Q 1538 4750 2522 4750 
Q 3503 4750 4090 4092 
Q 4678 3434 4678 2328 
Q 4678 1516 4351 937 
Q 4025 359 3406 84 
z
" transform="scale(0.015625)"/>
       <path id="DejaVuSans-ed" d="M 1322 5119 
L 1944 5119 
L 926 3944 
L 447 3944 
L 1322 5119 
z
M 603 3500 
L 1178 3500 
L 1178 0 
L 603 0 
L 603 3500 
z
M 891 3584 
L 891 3584 
z
" transform="scale(0.015625)"/>
       <path id="DejaVuSans-69" d="M 603 3500 
L 1178 3500 
L 1178 0 
L 603 0 
L 603 3500 
z
M 603 4863 
L 1178 4863 
L 1178 4134 
L 603 4134 
L 603 4863 
z
" transform="scale(0.015625)"/>
       <path id="DejaVuSans-63" d="M 3122 3366 
L 3122 2828 
Q 2878 2963 2633 3030 
Q 2388 3097 2138 3097 
Q 1578 3097 1268 2742 
Q 959 2388 959 1747 
Q 959 1106 1268 751 
Q 1578 397 2138 397 
Q 2388 397 2633 464 
Q 2878 531 3122 666 
L 3122 134 
Q 2881 22 2623 -34 
Q 2366 -91 2075 -91 
Q 1284 -91 818 406 
Q 353 903 353 1747 
Q 353 2603 823 3093 
Q 1294 3584 2113 3584 
Q 2378 3584 2631 3529 
Q 2884 3475 3122 3366 
z
" transform="scale(0.015625)"/>
       <path id="DejaVuSans-61" d="M 2194 1759 
Q 1497 1759 1228 1600 
Q 959 1441 959 1056 
Q 959 750 1161 570 
Q 1363 391 1709 391 
Q 2188 391 2477 730 
Q 2766 1069 2766 1631 
L 2766 1759 
L 2194 1759 
z
M 3341 1997 
L 3341 0 
L 2766 0 
L 2766 531 
Q 2569 213 2275 61 
Q 1981 -91 1556 -91 
Q 1019 -91 701 211 
Q 384 513 384 1019 
Q 384 1609 779 1909 
Q 1175 2209 1959 2209 
L 2766 2209 
L 2766 2266 
Q 2766 2663 2505 2880 
Q 2244 3097 1772 3097 
Q 1472 3097 1187 3025 
Q 903 2953 641 2809 
L 641 3341 
Q 956 3463 1253 3523 
Q 1550 3584 1831 3584 
Q 2591 3584 2966 3190 
Q 3341 2797 3341 1997 
z
" transform="scale(0.015625)"/>
       <path id="DejaVuSans-70" d="M 1159 525 
L 1159 -1331 
L 581 -1331 
L 581 3500 
L 1159 3500 
L 1159 2969 
Q 1341 3281 1617 3432 
Q 1894 3584 2278 3584 
Q 2916 3584 3314 3078 
Q 3713 2572 3713 1747 
Q 3713 922 3314 415 
Q 2916 -91 2278 -91 
Q 1894 -91 1617 61 
Q 1341 213 1159 525 
z
M 3116 1747 
Q 3116 2381 2855 2742 
Q 2594 3103 2138 3103 
Q 1681 3103 1420 2742 
Q 1159 2381 1159 1747 
Q 1159 1113 1420 752 
Q 1681 391 2138 391 
Q 2594 391 2855 752 
Q 3116 1113 3116 1747 
z
" transform="scale(0.015625)"/>
       <path id="DejaVuSans-43" d="M 4122 4306 
L 4122 3641 
Q 3803 3938 3442 4084 
Q 3081 4231 2675 4231 
Q 1875 4231 1450 3742 
Q 1025 3253 1025 2328 
Q 1025 1406 1450 917 
Q 1875 428 2675 428 
Q 3081 428 3442 575 
Q 3803 722 4122 1019 
L 4122 359 
Q 3791 134 3420 21 
Q 3050 -91 2638 -91 
Q 1578 -91 968 557 
Q 359 1206 359 2328 
Q 359 3453 968 4101 
Q 1578 4750 2638 4750 
Q 3056 4750 3426 4639 
Q 3797 4528 4122 4306 
z
" transform="scale(0.015625)"/>
       <path id="DejaVuSans-50" d="M 1259 4147 
L 1259 2394 
L 2053 2394 
Q 2494 2394 2734 2622 
Q 2975 2850 2975 3272 
Q 2975 3691 2734 3919 
Q 2494 4147 2053 4147 
L 1259 4147 
z
M 628 4666 
L 2053 4666 
Q 2838 4666 3239 4311 
Q 3641 3956 3641 3272 
Q 3641 2581 3239 2228 
Q 2838 1875 2053 1875 
L 1259 1875 
L 1259 0 
L 628 0 
L 628 4666 
z
" transform="scale(0.015625)"/>
       <path id="DejaVuSans-44" d="M 1259 4147 
L 1259 519 
L 2022 519 
Q 2988 519 3436 956 
Q 3884 1394 3884 2338 
Q 3884 3275 3436 3711 
Q 2988 4147 2022 4147 
L 1259 4147 
z
M 628 4666 
L 1925 4666 
Q 3281 4666 3915 4102 
Q 4550 3538 4550 2338 
Q 4550 1131 3912 565 
Q 3275 0 1925 0 
L 628 0 
L 628 4666 
z
" transform="scale(0.015625)"/>
      </defs>
      <use xlink:href="#DejaVuSans-4e"/>
      <use xlink:href="#DejaVuSans-fa" x="74.804688"/>
      <use xlink:href="#DejaVuSans-6d" x="138.183594"/>
      <use xlink:href="#DejaVuSans-65" x="235.595703"/>
      <use xlink:href="#DejaVuSans-72" x="297.119141"/>
      <use xlink:href="#DejaVuSans-6f" x="335.982422"/>
      <use xlink:href="#DejaVuSans-20" x="397.164062"/>
      <use xlink:href="#DejaVuSans-64" x="428.951172"/>
      <use xlink:href="#DejaVuSans-65" x="492.427734"/>
      <use xlink:href="#DejaVuSans-20" x="553.951172"/>
      <use xlink:href="#DejaVuSans-41" x="585.738281"/>
      <use xlink:href="#DejaVuSans-6c" x="654.146484"/>
      <use xlink:href="#DejaVuSans-75" x="681.929688"/>
      <use xlink:href="#DejaVuSans-6e" x="745.308594"/>
      <use xlink:href="#DejaVuSans-6f" x="808.6875"/>
      <use xlink:href="#DejaVuSans-73" x="869.869141"/>
      <use xlink:href="#DejaVuSans-20" x="921.96875"/>
      <use xlink:href="#DejaVuSans-64" x="953.755859"/>
      <use xlink:href="#DejaVuSans-65" x="1017.232422"/>
      <use xlink:href="#DejaVuSans-20" x="1078.755859"/>
      <use xlink:href="#DejaVuSans-51" x="1110.542969"/>
      <use xlink:href="#DejaVuSans-75" x="1189.253906"/>
      <use xlink:href="#DejaVuSans-ed" x="1252.632812"/>
      <use xlink:href="#DejaVuSans-6d" x="1280.416016"/>
      <use xlink:href="#DejaVuSans-69" x="1377.828125"/>
      <use xlink:href="#DejaVuSans-63" x="1405.611328"/>
      <use xlink:href="#DejaVuSans-61" x="1460.591797"/>
      <use xlink:href="#DejaVuSans-20" x="1521.871094"/>
      <use xlink:href="#DejaVuSans-70" x="1553.658203"/>
      <use xlink:href="#DejaVuSans-6f" x="1617.134766"/>
      <use xlink:href="#DejaVuSans-72" x="1678.316406"/>
      <use xlink:href="#DejaVuSans-20" x="1719.429688"/>
      <use xlink:href="#DejaVuSans-43" x="1751.216797"/>
      <use xlink:href="#DejaVuSans-6f" x="1821.041016"/>
      <use xlink:href="#DejaVuSans-72" x="1882.222656"/>
      <use xlink:href="#DejaVuSans-20" x="1923.335938"/>
      <use xlink:href="#DejaVuSans-64" x="1955.123047"/>
      <use xlink:href="#DejaVuSans-61" x="2018.599609"/>
      <use xlink:href="#DejaVuSans-20" x="2079.878906"/>
      <use xlink:href="#DejaVuSans-50" x="2111.666016"/>
      <use xlink:href="#DejaVuSans-65" x="2168.34375"/>
      <use xlink:href="#DejaVuSans-6c" x="2229.867188"/>
      <use xlink:href="#DejaVuSans-65" x="2257.650391"/>
      <use xlink:href="#DejaVuSans-20" x="2319.173828"/>
      <use xlink:href="#DejaVuSans-44" x="2350.960938"/>
      <use xlink:href="#DejaVuSans-65" x="2427.962891"/>
      <use xlink:href="#DejaVuSans-63" x="2489.486328"/>
      <use xlink:href="#DejaVuSans-6c" x="2544.466797"/>
      <use xlink:href="#DejaVuSans-61" x="2572.25"/>
      <use xlink:href="#DejaVuSans-72" x="2633.529297"/>
      <use xlink:href="#DejaVuSans-61" x="2674.642578"/>
      <use xlink:href="#DejaVuSans-64" x="2735.921875"/>
      <use xlink:href="#DejaVuSans-61" x="2799.398438"/>
     </g>
    </g>
   </g>
   <g id="patch_3">
    <path d="M 161.856 512.64 
L 190.4256 512.64 
L 190.4256 331.577528 
L 161.856 331.577528 
z
" clip-path="url(#pd2807aee6c)" style="fill: #701070; stroke: #ffffff; stroke-linejoin: miter"/>
   </g>
   <g id="patch_4">
    <path d="M 340.416 512.64 
L 368.9856 512.64 
L 368.9856 90.24 
L 340.416 90.24 
z
" clip-path="url(#pd2807aee6c)" style="fill: #701070; stroke: #ffffff; stroke-linejoin: miter"/>
   </g>
   <g id="patch_5">
    <path d="M 518.976 512.64 
L 547.5456 512.64 
L 547.5456 454.500674 
L 518.976 454.500674 
z
" clip-path="url(#pd2807aee6c)" style="fill: #701070; stroke: #ffffff; stroke-linejoin: miter"/>
   </g>
   <g id="patch_6">
    <path d="M 697.536 512.64 
L 726.1056 512.64 
L 726.1056 432.906067 
L 697.536 432.906067 
z
" clip-path="url(#pd2807aee6c)" style="fill: #701070; stroke: #ffffff; stroke-linejoin: miter"/>
   </g>
   <g id="patch_7">
    <path d="M 876.096 512.64 
L 904.6656 512.64 
L 904.6656 414.871011 
L 876.096 414.871011 
z
" clip-path="url(#pd2807aee6c)" style="fill: #701070; stroke: #ffffff; stroke-linejoin: miter"/>
   </g>
   <g id="patch_8">
    <path d="M 190.4256 512.64 
L 218.9952 512.64 
L 218.9952 454.026067 
L 190.4256 454.026067 
z
" clip-path="url(#pd2807aee6c)" style="fill: #df9c20; stroke: #ffffff; stroke-linejoin: miter"/>
   </g>
   <g id="patch_9">
    <path d="M 368.9856 512.64 
L 397.5552 512.64 
L 397.5552 379.275506 
L 368.9856 379.275506 
z
" clip-path="url(#pd2807aee6c)" style="fill: #df9c20; stroke: #ffffff; stroke-linejoin: miter"/>
   </g>
   <g id="patch_10">
    <path d="M 547.5456 512.64 
L 576.1152 512.64 
L 576.1152 485.824719 
L 547.5456 485.824719 
z
" clip-path="url(#pd2807aee6c)" style="fill: #df9c20; stroke: #ffffff; stroke-linejoin: miter"/>
   </g>
   <g id="patch_11">
    <path d="M 726.1056 512.64 
L 754.6752 512.64 
L 754.6752 476.569888 
L 726.1056 476.569888 
z
" clip-path="url(#pd2807aee6c)" style="fill: #df9c20; stroke: #ffffff; stroke-linejoin: miter"/>
   </g>
   <g id="patch_12">
    <path d="M 904.6656 512.64 
L 933.2352 512.64 
L 933.2352 462.568989 
L 904.6656 462.568989 
z
" clip-path="url(#pd2807aee6c)" style="fill: #df9c20; stroke: #ffffff; stroke-linejoin: miter"/>
   </g>
   <g id="patch_13">
    <path d="M 218.9952 512.64 
L 247.5648 512.64 
L 247.5648 498.876404 
L 218.9952 498.876404 
z
" clip-path="url(#pd2807aee6c)" style="fill: #2020df; stroke: #ffffff; stroke-linejoin: miter"/>
   </g>
   <g id="patch_14">
    <path d="M 397.5552 512.64 
L 426.1248 512.64 
L 426.1248 482.502472 
L 397.5552 482.502472 
z
" clip-path="url(#pd2807aee6c)" style="fill: #2020df; stroke: #ffffff; stroke-linejoin: miter"/>
   </g>
   <g id="patch_15">
    <path d="M 576.1152 512.64 
L 604.6848 512.64 
L 604.6848 507.893933 
L 576.1152 507.893933 
z
" clip-path="url(#pd2807aee6c)" style="fill: #2020df; stroke: #ffffff; stroke-linejoin: miter"/>
   </g>
   <g id="patch_16">
    <path d="M 754.6752 512.64 
L 783.2448 512.64 
L 783.2448 499.825618 
L 754.6752 499.825618 
z
" clip-path="url(#pd2807aee6c)" style="fill: #2020df; stroke: #ffffff; stroke-linejoin: miter"/>
   </g>
   <g id="patch_17">
    <path d="M 933.2352 512.64 
L 961.8048 512.64 
L 961.8048 492.23191 
L 933.2352 492.23191 
z
" clip-path="url(#pd2807aee6c)" style="fill: #2020df; stroke: #ffffff; stroke-linejoin: miter"/>
   </g>
   <g id="patch_18">
    <path d="M 247.5648 512.64 
L 276.1344 512.64 
L 276.1344 510.978876 
L 247.5648 510.978876 
z
" clip-path="url(#pd2807aee6c)" style="fill: #107010; stroke: #ffffff; stroke-linejoin: miter"/>
   </g>
   <g id="patch_19">
    <path d="M 426.1248 512.64 
L 454.6944 512.64 
L 454.6944 508.368539 
L 426.1248 508.368539 
z
" clip-path="url(#pd2807aee6c)" style="fill: #107010; stroke: #ffffff; stroke-linejoin: miter"/>
   </g>
   <g id="patch_20">
    <path d="M 604.6848 512.64 
L 633.2544 512.64 
L 633.2544 512.402697 
L 604.6848 512.402697 
z
" clip-path="url(#pd2807aee6c)" style="fill: #107010; stroke: #ffffff; stroke-linejoin: miter"/>
   </g>
   <g id="patch_21">
    <path d="M 783.2448 512.64 
L 811.8144 512.64 
L 811.8144 511.690787 
L 783.2448 511.690787 
z
" clip-path="url(#pd2807aee6c)" style="fill: #107010; stroke: #ffffff; stroke-linejoin: miter"/>
   </g>
   <g id="patch_22">
    <path d="M 961.8048 512.64 
L 990.3744 512.64 
L 990.3744 512.402697 
L 961.8048 512.402697 
z
" clip-path="url(#pd2807aee6c)" style="fill: #107010; stroke: #ffffff; stroke-linejoin: miter"/>
   </g>
   <g id="patch_23">
    <path d="M 276.1344 512.64 
L 304.704 512.64 
L 304.704 506.232809 
L 276.1344 506.232809 
z
" clip-path="url(#pd2807aee6c)" style="fill: #dfdf20; stroke: #ffffff; stroke-linejoin: miter"/>
   </g>
   <g id="patch_24">
    <path d="M 454.6944 512.64 
L 483.264 512.64 
L 483.264 498.164494 
L 454.6944 498.164494 
z
" clip-path="url(#pd2807aee6c)" style="fill: #dfdf20; stroke: #ffffff; stroke-linejoin: miter"/>
   </g>
   <g id="patch_25">
    <path d="M 633.2544 512.64 
L 661.824 512.64 
L 661.824 511.690787 
L 633.2544 511.690787 
z
" clip-path="url(#pd2807aee6c)" style="fill: #dfdf20; stroke: #ffffff; stroke-linejoin: miter"/>
   </g>
   <g id="patch_26">
    <path d="M 811.8144 512.64 
L 840.384 512.64 
L 840.384 510.266966 
L 811.8144 510.266966 
z
" clip-path="url(#pd2807aee6c)" style="fill: #dfdf20; stroke: #ffffff; stroke-linejoin: miter"/>
   </g>
   <g id="patch_27">
    <path d="M 990.3744 512.64 
L 1018.944 512.64 
L 1018.944 508.605843 
L 990.3744 508.605843 
z
" clip-path="url(#pd2807aee6c)" style="fill: #dfdf20; stroke: #ffffff; stroke-linejoin: miter"/>
   </g>
   <g id="patch_28">
    <path d="M 233.28 512.64 
L 233.28 512.64 
L 233.28 512.64 
L 233.28 512.64 
z
" clip-path="url(#pd2807aee6c)" style="fill: #701070; stroke: #ffffff; stroke-linejoin: miter"/>
   </g>
   <g id="patch_29">
    <path d="M 233.28 512.64 
L 233.28 512.64 
L 233.28 512.64 
L 233.28 512.64 
z
" clip-path="url(#pd2807aee6c)" style="fill: #df9c20; stroke: #ffffff; stroke-linejoin: miter"/>
   </g>
   <g id="patch_30">
    <path d="M 233.28 512.64 
L 233.28 512.64 
L 233.28 512.64 
L 233.28 512.64 
z
" clip-path="url(#pd2807aee6c)" style="fill: #2020df; stroke: #ffffff; stroke-linejoin: miter"/>
   </g>
   <g id="patch_31">
    <path d="M 233.28 512.64 
L 233.28 512.64 
L 233.28 512.64 
L 233.28 512.64 
z
" clip-path="url(#pd2807aee6c)" style="fill: #107010; stroke: #ffffff; stroke-linejoin: miter"/>
   </g>
   <g id="patch_32">
    <path d="M 233.28 512.64 
L 233.28 512.64 
L 233.28 512.64 
L 233.28 512.64 
z
" clip-path="url(#pd2807aee6c)" style="fill: #dfdf20; stroke: #ffffff; stroke-linejoin: miter"/>
   </g>
   <g id="line2d_9">
    <path clip-path="url(#pd2807aee6c)" style="fill: none; stroke: #424242; stroke-width: 2.25; stroke-linecap: round"/>
   </g>
   <g id="line2d_10">
    <path clip-path="url(#pd2807aee6c)" style="fill: none; stroke: #424242; stroke-width: 2.25; stroke-linecap: round"/>
   </g>
   <g id="line2d_11">
    <path clip-path="url(#pd2807aee6c)" style="fill: none; stroke: #424242; stroke-width: 2.25; stroke-linecap: round"/>
   </g>
   <g id="line2d_12">
    <path clip-path="url(#pd2807aee6c)" style="fill: none; stroke: #424242; stroke-width: 2.25; stroke-linecap: round"/>
   </g>
   <g id="line2d_13">
    <path clip-path="url(#pd2807aee6c)" style="fill: none; stroke: #424242; stroke-width: 2.25; stroke-linecap: round"/>
   </g>
   <g id="line2d_14">
    <path clip-path="url(#pd2807aee6c)" style="fill: none; stroke: #424242; stroke-width: 2.25; stroke-linecap: round"/>
   </g>
   <g id="line2d_15">
    <path clip-path="url(#pd2807aee6c)" style="fill: none; stroke: #424242; stroke-width: 2.25; stroke-linecap: round"/>
   </g>
   <g id="line2d_16">
    <path clip-path="url(#pd2807aee6c)" style="fill: none; stroke: #424242; stroke-width: 2.25; stroke-linecap: round"/>
   </g>
   <g id="line2d_17">
    <path clip-path="url(#pd2807aee6c)" style="fill: none; stroke: #424242; stroke-width: 2.25; stroke-linecap: round"/>
   </g>
   <g id="line2d_18">
    <path clip-path="url(#pd2807aee6c)" style="fill: none; stroke: #424242; stroke-width: 2.25; stroke-linecap: round"/>
   </g>
   <g id="line2d_19">
    <path clip-path="url(#pd2807aee6c)" style="fill: none; stroke: #424242; stroke-width: 2.25; stroke-linecap: round"/>
   </g>
   <g id="line2d_20">
    <path clip-path="url(#pd2807aee6c)" style="fill: none; stroke: #424242; stroke-width: 2.25; stroke-linecap: round"/>
   </g>
   <g id="line2d_21">
    <path clip-path="url(#pd2807aee6c)" style="fill: none; stroke: #424242; stroke-width: 2.25; stroke-linecap: round"/>
   </g>
   <g id="line2d_22">
    <path clip-path="url(#pd2807aee6c)" style="fill: none; stroke: #424242; stroke-width: 2.25; stroke-linecap: round"/>
   </g>
   <g id="line2d_23">
    <path clip-path="url(#pd2807aee6c)" style="fill: none; stroke: #424242; stroke-width: 2.25; stroke-linecap: round"/>
   </g>
   <g id="line2d_24">
    <path clip-path="url(#pd2807aee6c)" style="fill: none; stroke: #424242; stroke-width: 2.25; stroke-linecap: round"/>
   </g>
   <g id="line2d_25">
    <path clip-path="url(#pd2807aee6c)" style="fill: none; stroke: #424242; stroke-width: 2.25; stroke-linecap: round"/>
   </g>
   <g id="line2d_26">
    <path clip-path="url(#pd2807aee6c)" style="fill: none; stroke: #424242; stroke-width: 2.25; stroke-linecap: round"/>
   </g>
   <g id="line2d_27">
    <path clip-path="url(#pd2807aee6c)" style="fill: none; stroke: #424242; stroke-width: 2.25; stroke-linecap: round"/>
   </g>
   <g id="line2d_28">
    <path clip-path="url(#pd2807aee6c)" style="fill: none; stroke: #424242; stroke-width: 2.25; stroke-linecap: round"/>
   </g>
   <g id="line2d_29">
    <path clip-path="url(#pd2807aee6c)" style="fill: none; stroke: #424242; stroke-width: 2.25; stroke-linecap: round"/>
   </g>
   <g id="line2d_30">
    <path clip-path="url(#pd2807aee6c)" style="fill: none; stroke: #424242; stroke-width: 2.25; stroke-linecap: round"/>
   </g>
   <g id="line2d_31">
    <path clip-path="url(#pd2807aee6c)" style="fill: none; stroke: #424242; stroke-width: 2.25; stroke-linecap: round"/>
   </g>
   <g id="line2d_32">
    <path clip-path="url(#pd2807aee6c)" style="fill: none; stroke: #424242; stroke-width: 2.25; stroke-linecap: round"/>
   </g>
   <g id="line2d_33">
    <path clip-path="url(#pd2807aee6c)" style="fill: none; stroke: #424242; stroke-width: 2.25; stroke-linecap: round"/>
   </g>
   <g id="line2d_34">
    <path d="M 322.56 512.64 
L 322.56 69.12 
" clip-path="url(#pd2807aee6c)" style="fill: none; stroke-dasharray: 5.55,2.4; stroke-dashoffset: 0; stroke: #808080; stroke-width: 1.5"/>
   </g>
   <g id="line2d_35">
    <path d="M 501.12 512.64 
L 501.12 69.12 
" clip-path="url(#pd2807aee6c)" style="fill: none; stroke-dasharray: 5.55,2.4; stroke-dashoffset: 0; stroke: #808080; stroke-width: 1.5"/>
   </g>
   <g id="line2d_36">
    <path d="M 679.68 512.64 
L 679.68 69.12 
" clip-path="url(#pd2807aee6c)" style="fill: none; stroke-dasharray: 5.55,2.4; stroke-dashoffset: 0; stroke: #808080; stroke-width: 1.5"/>
   </g>
   <g id="line2d_37">
    <path d="M 858.24 512.64 
L 858.24 69.12 
" clip-path="url(#pd2807aee6c)" style="fill: none; stroke-dasharray: 5.55,2.4; stroke-dashoffset: 0; stroke: #808080; stroke-width: 1.5"/>
   </g>
   <g id="patch_33">
    <path d="M 144 512.64 
L 144 69.12 
" style="fill: none; stroke: #ffffff; stroke-width: 1.25; stroke-linejoin: miter; stroke-linecap: square"/>
   </g>
   <g id="patch_34">
    <path d="M 1036.8 512.64 
L 1036.8 69.12 
" style="fill: none; stroke: #ffffff; stroke-width: 1.25; stroke-linejoin: miter; stroke-linecap: square"/>
   </g>
   <g id="patch_35">
    <path d="M 144 512.64 
L 1036.8 512.64 
" style="fill: none; stroke: #ffffff; stroke-width: 1.25; stroke-linejoin: miter; stroke-linecap: square"/>
   </g>
   <g id="patch_36">
    <path d="M 144 69.12 
L 1036.8 69.12 
" style="fill: none; stroke: #ffffff; stroke-width: 1.25; stroke-linejoin: miter; stroke-linecap: square"/>
   </g>
   <g id="text_16">
    <!-- Cursos: Química, Química Industrial E Tecnológica -->
    <g style="fill: #262626" transform="translate(452.869922 564.682513) scale(0.11 -0.11)">
     <defs>
      <path id="DejaVuSans-3a" d="M 750 794 
L 1409 794 
L 1409 0 
L 750 0 
L 750 794 
z
M 750 3309 
L 1409 3309 
L 1409 2516 
L 750 2516 
L 750 3309 
z
" transform="scale(0.015625)"/>
      <path id="DejaVuSans-2c" d="M 750 794 
L 1409 794 
L 1409 256 
L 897 -744 
L 494 -744 
L 750 256 
L 750 794 
z
" transform="scale(0.015625)"/>
      <path id="DejaVuSans-49" d="M 628 4666 
L 1259 4666 
L 1259 0 
L 628 0 
L 628 4666 
z
" transform="scale(0.015625)"/>
      <path id="DejaVuSans-74" d="M 1172 4494 
L 1172 3500 
L 2356 3500 
L 2356 3053 
L 1172 3053 
L 1172 1153 
Q 1172 725 1289 603 
Q 1406 481 1766 481 
L 2356 481 
L 2356 0 
L 1766 0 
Q 1100 0 847 248 
Q 594 497 594 1153 
L 594 3053 
L 172 3053 
L 172 3500 
L 594 3500 
L 594 4494 
L 1172 4494 
z
" transform="scale(0.015625)"/>
      <path id="DejaVuSans-45" d="M 628 4666 
L 3578 4666 
L 3578 4134 
L 1259 4134 
L 1259 2753 
L 3481 2753 
L 3481 2222 
L 1259 2222 
L 1259 531 
L 3634 531 
L 3634 0 
L 628 0 
L 628 4666 
z
" transform="scale(0.015625)"/>
      <path id="DejaVuSans-54" d="M -19 4666 
L 3928 4666 
L 3928 4134 
L 2272 4134 
L 2272 0 
L 1638 0 
L 1638 4134 
L -19 4134 
L -19 4666 
z
" transform="scale(0.015625)"/>
      <path id="DejaVuSans-f3" d="M 1959 3097 
Q 1497 3097 1228 2736 
Q 959 2375 959 1747 
Q 959 1119 1226 758 
Q 1494 397 1959 397 
Q 2419 397 2687 759 
Q 2956 1122 2956 1747 
Q 2956 2369 2687 2733 
Q 2419 3097 1959 3097 
z
M 1959 3584 
Q 2709 3584 3137 3096 
Q 3566 2609 3566 1747 
Q 3566 888 3137 398 
Q 2709 -91 1959 -91 
Q 1206 -91 779 398 
Q 353 888 353 1747 
Q 353 2609 779 3096 
Q 1206 3584 1959 3584 
z
M 2394 5119 
L 3016 5119 
L 1998 3944 
L 1519 3944 
L 2394 5119 
z
" transform="scale(0.015625)"/>
      <path id="DejaVuSans-67" d="M 2906 1791 
Q 2906 2416 2648 2759 
Q 2391 3103 1925 3103 
Q 1463 3103 1205 2759 
Q 947 2416 947 1791 
Q 947 1169 1205 825 
Q 1463 481 1925 481 
Q 2391 481 2648 825 
Q 2906 1169 2906 1791 
z
M 3481 434 
Q 3481 -459 3084 -895 
Q 2688 -1331 1869 -1331 
Q 1566 -1331 1297 -1286 
Q 1028 -1241 775 -1147 
L 775 -588 
Q 1028 -725 1275 -790 
Q 1522 -856 1778 -856 
Q 2344 -856 2625 -561 
Q 2906 -266 2906 331 
L 2906 616 
Q 2728 306 2450 153 
Q 2172 0 1784 0 
Q 1141 0 747 490 
Q 353 981 353 1791 
Q 353 2603 747 3093 
Q 1141 3584 1784 3584 
Q 2172 3584 2450 3431 
Q 2728 3278 2906 2969 
L 2906 3500 
L 3481 3500 
L 3481 434 
z
" transform="scale(0.015625)"/>
     </defs>
     <use xlink:href="#DejaVuSans-43"/>
     <use xlink:href="#DejaVuSans-75" x="69.824219"/>
     <use xlink:href="#DejaVuSans-72" x="133.203125"/>
     <use xlink:href="#DejaVuSans-73" x="174.316406"/>
     <use xlink:href="#DejaVuSans-6f" x="226.416016"/>
     <use xlink:href="#DejaVuSans-73" x="287.597656"/>
     <use xlink:href="#DejaVuSans-3a" x="339.697266"/>
     <use xlink:href="#DejaVuSans-20" x="373.388672"/>
     <use xlink:href="#DejaVuSans-51" x="405.175781"/>
     <use xlink:href="#DejaVuSans-75" x="483.886719"/>
     <use xlink:href="#DejaVuSans-ed" x="547.265625"/>
     <use xlink:href="#DejaVuSans-6d" x="575.048828"/>
     <use xlink:href="#DejaVuSans-69" x="672.460938"/>
     <use xlink:href="#DejaVuSans-63" x="700.244141"/>
     <use xlink:href="#DejaVuSans-61" x="755.224609"/>
     <use xlink:href="#DejaVuSans-2c" x="816.503906"/>
     <use xlink:href="#DejaVuSans-20" x="848.291016"/>
     <use xlink:href="#DejaVuSans-51" x="880.078125"/>
     <use xlink:href="#DejaVuSans-75" x="958.789062"/>
     <use xlink:href="#DejaVuSans-ed" x="1022.167969"/>
     <use xlink:href="#DejaVuSans-6d" x="1049.951172"/>
     <use xlink:href="#DejaVuSans-69" x="1147.363281"/>
     <use xlink:href="#DejaVuSans-63" x="1175.146484"/>
     <use xlink:href="#DejaVuSans-61" x="1230.126953"/>
     <use xlink:href="#DejaVuSans-20" x="1291.40625"/>
     <use xlink:href="#DejaVuSans-49" x="1323.193359"/>
     <use xlink:href="#DejaVuSans-6e" x="1352.685547"/>
     <use xlink:href="#DejaVuSans-64" x="1416.064453"/>
     <use xlink:href="#DejaVuSans-75" x="1479.541016"/>
     <use xlink:href="#DejaVuSans-73" x="1542.919922"/>
     <use xlink:href="#DejaVuSans-74" x="1595.019531"/>
     <use xlink:href="#DejaVuSans-72" x="1634.228516"/>
     <use xlink:href="#DejaVuSans-69" x="1675.341797"/>
     <use xlink:href="#DejaVuSans-61" x="1703.125"/>
     <use xlink:href="#DejaVuSans-6c" x="1764.404297"/>
     <use xlink:href="#DejaVuSans-20" x="1792.1875"/>
     <use xlink:href="#DejaVuSans-45" x="1823.974609"/>
     <use xlink:href="#DejaVuSans-20" x="1887.158203"/>
     <use xlink:href="#DejaVuSans-54" x="1918.945312"/>
     <use xlink:href="#DejaVuSans-65" x="1963.029297"/>
     <use xlink:href="#DejaVuSans-63" x="2024.552734"/>
     <use xlink:href="#DejaVuSans-6e" x="2079.533203"/>
     <use xlink:href="#DejaVuSans-6f" x="2142.912109"/>
     <use xlink:href="#DejaVuSans-6c" x="2204.09375"/>
     <use xlink:href="#DejaVuSans-f3" x="2231.876953"/>
     <use xlink:href="#DejaVuSans-67" x="2293.058594"/>
     <use xlink:href="#DejaVuSans-69" x="2356.535156"/>
     <use xlink:href="#DejaVuSans-63" x="2384.318359"/>
     <use xlink:href="#DejaVuSans-61" x="2439.298828"/>
    </g>
   </g>
   <g id="text_17">
    <!-- Alunos de Química com Ação Afirmativa e Cor da Pele Declarada por Ano -->
    <g style="fill: #262626" transform="translate(297.655 63.12) scale(0.16 -0.16)">
     <defs>
      <path id="DejaVuSans-e7" d="M 3122 3366 
L 3122 2828 
Q 2878 2963 2633 3030 
Q 2388 3097 2138 3097 
Q 1578 3097 1268 2742 
Q 959 2388 959 1747 
Q 959 1106 1268 751 
Q 1578 397 2138 397 
Q 2388 397 2633 464 
Q 2878 531 3122 666 
L 3122 134 
Q 2881 22 2623 -34 
Q 2366 -91 2075 -91 
Q 1284 -91 818 406 
Q 353 903 353 1747 
Q 353 2603 823 3093 
Q 1294 3584 2113 3584 
Q 2378 3584 2631 3529 
Q 2884 3475 3122 3366 
z
M 2311 0 
Q 2482 -194 2566 -358 
Q 2651 -522 2651 -672 
Q 2651 -950 2463 -1092 
Q 2276 -1234 1907 -1234 
Q 1764 -1234 1628 -1215 
Q 1492 -1197 1357 -1159 
L 1357 -750 
Q 1464 -803 1579 -826 
Q 1695 -850 1842 -850 
Q 2026 -850 2120 -775 
Q 2214 -700 2214 -556 
Q 2214 -463 2146 -327 
Q 2079 -191 1939 0 
L 2311 0 
z
" transform="scale(0.015625)"/>
      <path id="DejaVuSans-e3" d="M 2194 1759 
Q 1497 1759 1228 1600 
Q 959 1441 959 1056 
Q 959 750 1161 570 
Q 1363 391 1709 391 
Q 2188 391 2477 730 
Q 2766 1069 2766 1631 
L 2766 1759 
L 2194 1759 
z
M 3341 1997 
L 3341 0 
L 2766 0 
L 2766 531 
Q 2569 213 2275 61 
Q 1981 -91 1556 -91 
Q 1019 -91 701 211 
Q 384 513 384 1019 
Q 384 1609 779 1909 
Q 1175 2209 1959 2209 
L 2766 2209 
L 2766 2266 
Q 2766 2663 2505 2880 
Q 2244 3097 1772 3097 
Q 1472 3097 1187 3025 
Q 903 2953 641 2809 
L 641 3341 
Q 956 3463 1253 3523 
Q 1550 3584 1831 3584 
Q 2591 3584 2966 3190 
Q 3341 2797 3341 1997 
z
M 1844 4281 
L 1665 4453 
Q 1597 4516 1545 4545 
Q 1494 4575 1453 4575 
Q 1334 4575 1278 4461 
Q 1222 4347 1215 4091 
L 825 4091 
Q 831 4513 990 4742 
Q 1150 4972 1434 4972 
Q 1553 4972 1653 4928 
Q 1753 4884 1869 4781 
L 2047 4609 
Q 2115 4547 2167 4517 
Q 2219 4488 2259 4488 
Q 2378 4488 2434 4602 
Q 2490 4716 2497 4972 
L 2887 4972 
Q 2881 4550 2721 4320 
Q 2562 4091 2278 4091 
Q 2159 4091 2059 4134 
Q 1959 4178 1844 4281 
z
" transform="scale(0.015625)"/>
      <path id="DejaVuSans-66" d="M 2375 4863 
L 2375 4384 
L 1825 4384 
Q 1516 4384 1395 4259 
Q 1275 4134 1275 3809 
L 1275 3500 
L 2222 3500 
L 2222 3053 
L 1275 3053 
L 1275 0 
L 697 0 
L 697 3053 
L 147 3053 
L 147 3500 
L 697 3500 
L 697 3744 
Q 697 4328 969 4595 
Q 1241 4863 1831 4863 
L 2375 4863 
z
" transform="scale(0.015625)"/>
      <path id="DejaVuSans-76" d="M 191 3500 
L 800 3500 
L 1894 563 
L 2988 3500 
L 3597 3500 
L 2284 0 
L 1503 0 
L 191 3500 
z
" transform="scale(0.015625)"/>
     </defs>
     <use xlink:href="#DejaVuSans-41"/>
     <use xlink:href="#DejaVuSans-6c" x="68.408203"/>
     <use xlink:href="#DejaVuSans-75" x="96.191406"/>
     <use xlink:href="#DejaVuSans-6e" x="159.570312"/>
     <use xlink:href="#DejaVuSans-6f" x="222.949219"/>
     <use xlink:href="#DejaVuSans-73" x="284.130859"/>
     <use xlink:href="#DejaVuSans-20" x="336.230469"/>
     <use xlink:href="#DejaVuSans-64" x="368.017578"/>
     <use xlink:href="#DejaVuSans-65" x="431.494141"/>
     <use xlink:href="#DejaVuSans-20" x="493.017578"/>
     <use xlink:href="#DejaVuSans-51" x="524.804688"/>
     <use xlink:href="#DejaVuSans-75" x="603.515625"/>
     <use xlink:href="#DejaVuSans-ed" x="666.894531"/>
     <use xlink:href="#DejaVuSans-6d" x="694.677734"/>
     <use xlink:href="#DejaVuSans-69" x="792.089844"/>
     <use xlink:href="#DejaVuSans-63" x="819.873047"/>
     <use xlink:href="#DejaVuSans-61" x="874.853516"/>
     <use xlink:href="#DejaVuSans-20" x="936.132812"/>
     <use xlink:href="#DejaVuSans-63" x="967.919922"/>
     <use xlink:href="#DejaVuSans-6f" x="1022.900391"/>
     <use xlink:href="#DejaVuSans-6d" x="1084.082031"/>
     <use xlink:href="#DejaVuSans-20" x="1181.494141"/>
     <use xlink:href="#DejaVuSans-41" x="1213.28125"/>
     <use xlink:href="#DejaVuSans-e7" x="1279.939453"/>
     <use xlink:href="#DejaVuSans-e3" x="1334.919922"/>
     <use xlink:href="#DejaVuSans-6f" x="1396.199219"/>
     <use xlink:href="#DejaVuSans-20" x="1457.380859"/>
     <use xlink:href="#DejaVuSans-41" x="1489.167969"/>
     <use xlink:href="#DejaVuSans-66" x="1553.951172"/>
     <use xlink:href="#DejaVuSans-69" x="1589.15625"/>
     <use xlink:href="#DejaVuSans-72" x="1616.939453"/>
     <use xlink:href="#DejaVuSans-6d" x="1656.302734"/>
     <use xlink:href="#DejaVuSans-61" x="1753.714844"/>
     <use xlink:href="#DejaVuSans-74" x="1814.994141"/>
     <use xlink:href="#DejaVuSans-69" x="1854.203125"/>
     <use xlink:href="#DejaVuSans-76" x="1881.986328"/>
     <use xlink:href="#DejaVuSans-61" x="1941.166016"/>
     <use xlink:href="#DejaVuSans-20" x="2002.445312"/>
     <use xlink:href="#DejaVuSans-65" x="2034.232422"/>
     <use xlink:href="#DejaVuSans-20" x="2095.755859"/>
     <use xlink:href="#DejaVuSans-43" x="2127.542969"/>
     <use xlink:href="#DejaVuSans-6f" x="2197.367188"/>
     <use xlink:href="#DejaVuSans-72" x="2258.548828"/>
     <use xlink:href="#DejaVuSans-20" x="2299.662109"/>
     <use xlink:href="#DejaVuSans-64" x="2331.449219"/>
     <use xlink:href="#DejaVuSans-61" x="2394.925781"/>
     <use xlink:href="#DejaVuSans-20" x="2456.205078"/>
     <use xlink:href="#DejaVuSans-50" x="2487.992188"/>
     <use xlink:href="#DejaVuSans-65" x="2544.669922"/>
     <use xlink:href="#DejaVuSans-6c" x="2606.193359"/>
     <use xlink:href="#DejaVuSans-65" x="2633.976562"/>
     <use xlink:href="#DejaVuSans-20" x="2695.5"/>
     <use xlink:href="#DejaVuSans-44" x="2727.287109"/>
     <use xlink:href="#DejaVuSans-65" x="2804.289062"/>
     <use xlink:href="#DejaVuSans-63" x="2865.8125"/>
     <use xlink:href="#DejaVuSans-6c" x="2920.792969"/>
     <use xlink:href="#DejaVuSans-61" x="2948.576172"/>
     <use xlink:href="#DejaVuSans-72" x="3009.855469"/>
     <use xlink:href="#DejaVuSans-61" x="3050.96875"/>
     <use xlink:href="#DejaVuSans-64" x="3112.248047"/>
     <use xlink:href="#DejaVuSans-61" x="3175.724609"/>
     <use xlink:href="#DejaVuSans-20" x="3237.003906"/>
     <use xlink:href="#DejaVuSans-70" x="3268.791016"/>
     <use xlink:href="#DejaVuSans-6f" x="3332.267578"/>
     <use xlink:href="#DejaVuSans-72" x="3393.449219"/>
     <use xlink:href="#DejaVuSans-20" x="3434.5625"/>
     <use xlink:href="#DejaVuSans-41" x="3466.349609"/>
     <use xlink:href="#DejaVuSans-6e" x="3534.757812"/>
     <use xlink:href="#DejaVuSans-6f" x="3598.136719"/>
    </g>
   </g>
   <g id="legend_1">
    <g id="patch_37">
     <path d="M 1044.5 341.671719 
L 1181.23375 341.671719 
Q 1183.43375 341.671719 1183.43375 339.471719 
L 1183.43375 242.288281 
Q 1183.43375 240.088281 1181.23375 240.088281 
L 1044.5 240.088281 
Q 1042.3 240.088281 1042.3 242.288281 
L 1042.3 339.471719 
Q 1042.3 341.671719 1044.5 341.671719 
z
" style="fill: #eaeaf2; opacity: 0.8; stroke: #cccccc; stroke-linejoin: miter"/>
    </g>
    <g id="text_18">
     <!-- Cor da pele declarada -->
     <g style="fill: #262626" transform="translate(1046.7 253.606406) scale(0.12 -0.12)">
      <use xlink:href="#DejaVuSans-43"/>
      <use xlink:href="#DejaVuSans-6f" x="69.824219"/>
      <use xlink:href="#DejaVuSans-72" x="131.005859"/>
      <use xlink:href="#DejaVuSans-20" x="172.119141"/>
      <use xlink:href="#DejaVuSans-64" x="203.90625"/>
      <use xlink:href="#DejaVuSans-61" x="267.382812"/>
      <use xlink:href="#DejaVuSans-20" x="328.662109"/>
      <use xlink:href="#DejaVuSans-70" x="360.449219"/>
      <use xlink:href="#DejaVuSans-65" x="423.925781"/>
      <use xlink:href="#DejaVuSans-6c" x="485.449219"/>
      <use xlink:href="#DejaVuSans-65" x="513.232422"/>
      <use xlink:href="#DejaVuSans-20" x="574.755859"/>
      <use xlink:href="#DejaVuSans-64" x="606.542969"/>
      <use xlink:href="#DejaVuSans-65" x="670.019531"/>
      <use xlink:href="#DejaVuSans-63" x="731.542969"/>
      <use xlink:href="#DejaVuSans-6c" x="786.523438"/>
      <use xlink:href="#DejaVuSans-61" x="814.306641"/>
      <use xlink:href="#DejaVuSans-72" x="875.585938"/>
      <use xlink:href="#DejaVuSans-61" x="916.699219"/>
      <use xlink:href="#DejaVuSans-64" x="977.978516"/>
      <use xlink:href="#DejaVuSans-61" x="1041.455078"/>
     </g>
    </g>
    <g id="patch_38">
     <path d="M 1050.666172 269.960312 
L 1072.666172 269.960312 
L 1072.666172 262.260312 
L 1050.666172 262.260312 
z
" style="fill: #701070; stroke: #ffffff; stroke-linejoin: miter"/>
    </g>
    <g id="text_19">
     <!-- Branco -->
     <g style="fill: #262626" transform="translate(1081.466172 269.960312) scale(0.11 -0.11)">
      <defs>
       <path id="DejaVuSans-42" d="M 1259 2228 
L 1259 519 
L 2272 519 
Q 2781 519 3026 730 
Q 3272 941 3272 1375 
Q 3272 1813 3026 2020 
Q 2781 2228 2272 2228 
L 1259 2228 
z
M 1259 4147 
L 1259 2741 
L 2194 2741 
Q 2656 2741 2882 2914 
Q 3109 3088 3109 3444 
Q 3109 3797 2882 3972 
Q 2656 4147 2194 4147 
L 1259 4147 
z
M 628 4666 
L 2241 4666 
Q 2963 4666 3353 4366 
Q 3744 4066 3744 3513 
Q 3744 3084 3544 2831 
Q 3344 2578 2956 2516 
Q 3422 2416 3680 2098 
Q 3938 1781 3938 1306 
Q 3938 681 3513 340 
Q 3088 0 2303 0 
L 628 0 
L 628 4666 
z
" transform="scale(0.015625)"/>
      </defs>
      <use xlink:href="#DejaVuSans-42"/>
      <use xlink:href="#DejaVuSans-72" x="68.603516"/>
      <use xlink:href="#DejaVuSans-61" x="109.716797"/>
      <use xlink:href="#DejaVuSans-6e" x="170.996094"/>
      <use xlink:href="#DejaVuSans-63" x="234.375"/>
      <use xlink:href="#DejaVuSans-6f" x="289.355469"/>
     </g>
    </g>
    <g id="patch_39">
     <path d="M 1050.666172 286.10625 
L 1072.666172 286.10625 
L 1072.666172 278.40625 
L 1050.666172 278.40625 
z
" style="fill: #df9c20; stroke: #ffffff; stroke-linejoin: miter"/>
    </g>
    <g id="text_20">
     <!-- Pardo -->
     <g style="fill: #262626" transform="translate(1081.466172 286.10625) scale(0.11 -0.11)">
      <use xlink:href="#DejaVuSans-50"/>
      <use xlink:href="#DejaVuSans-61" x="55.802734"/>
      <use xlink:href="#DejaVuSans-72" x="117.082031"/>
      <use xlink:href="#DejaVuSans-64" x="156.445312"/>
      <use xlink:href="#DejaVuSans-6f" x="219.921875"/>
     </g>
    </g>
    <g id="patch_40">
     <path d="M 1050.666172 302.252187 
L 1072.666172 302.252187 
L 1072.666172 294.552188 
L 1050.666172 294.552188 
z
" style="fill: #2020df; stroke: #ffffff; stroke-linejoin: miter"/>
    </g>
    <g id="text_21">
     <!-- Negro -->
     <g style="fill: #262626" transform="translate(1081.466172 302.252187) scale(0.11 -0.11)">
      <use xlink:href="#DejaVuSans-4e"/>
      <use xlink:href="#DejaVuSans-65" x="74.804688"/>
      <use xlink:href="#DejaVuSans-67" x="136.328125"/>
      <use xlink:href="#DejaVuSans-72" x="199.804688"/>
      <use xlink:href="#DejaVuSans-6f" x="238.667969"/>
     </g>
    </g>
    <g id="patch_41">
     <path d="M 1050.666172 318.838125 
L 1072.666172 318.838125 
L 1072.666172 311.138125 
L 1050.666172 311.138125 
z
" style="fill: #107010; stroke: #ffffff; stroke-linejoin: miter"/>
    </g>
    <g id="text_22">
     <!-- Indígena -->
     <g style="fill: #262626" transform="translate(1081.466172 318.838125) scale(0.11 -0.11)">
      <use xlink:href="#DejaVuSans-49"/>
      <use xlink:href="#DejaVuSans-6e" x="29.492188"/>
      <use xlink:href="#DejaVuSans-64" x="92.871094"/>
      <use xlink:href="#DejaVuSans-ed" x="156.347656"/>
      <use xlink:href="#DejaVuSans-67" x="184.130859"/>
      <use xlink:href="#DejaVuSans-65" x="247.607422"/>
      <use xlink:href="#DejaVuSans-6e" x="309.130859"/>
      <use xlink:href="#DejaVuSans-61" x="372.509766"/>
     </g>
    </g>
    <g id="patch_42">
     <path d="M 1050.666172 334.984062 
L 1072.666172 334.984062 
L 1072.666172 327.284063 
L 1050.666172 327.284063 
z
" style="fill: #dfdf20; stroke: #ffffff; stroke-linejoin: miter"/>
    </g>
    <g id="text_23">
     <!-- Amarelo/Oriental -->
     <g style="fill: #262626" transform="translate(1081.466172 334.984062) scale(0.11 -0.11)">
      <defs>
       <path id="DejaVuSans-2f" d="M 1625 4666 
L 2156 4666 
L 531 -594 
L 0 -594 
L 1625 4666 
z
" transform="scale(0.015625)"/>
       <path id="DejaVuSans-4f" d="M 2522 4238 
Q 1834 4238 1429 3725 
Q 1025 3213 1025 2328 
Q 1025 1447 1429 934 
Q 1834 422 2522 422 
Q 3209 422 3611 934 
Q 4013 1447 4013 2328 
Q 4013 3213 3611 3725 
Q 3209 4238 2522 4238 
z
M 2522 4750 
Q 3503 4750 4090 4092 
Q 4678 3434 4678 2328 
Q 4678 1225 4090 567 
Q 3503 -91 2522 -91 
Q 1538 -91 948 565 
Q 359 1222 359 2328 
Q 359 3434 948 4092 
Q 1538 4750 2522 4750 
z
" transform="scale(0.015625)"/>
      </defs>
      <use xlink:href="#DejaVuSans-41"/>
      <use xlink:href="#DejaVuSans-6d" x="68.408203"/>
      <use xlink:href="#DejaVuSans-61" x="165.820312"/>
      <use xlink:href="#DejaVuSans-72" x="227.099609"/>
      <use xlink:href="#DejaVuSans-65" x="265.962891"/>
      <use xlink:href="#DejaVuSans-6c" x="327.486328"/>
      <use xlink:href="#DejaVuSans-6f" x="355.269531"/>
      <use xlink:href="#DejaVuSans-2f" x="416.451172"/>
      <use xlink:href="#DejaVuSans-4f" x="450.142578"/>
      <use xlink:href="#DejaVuSans-72" x="528.853516"/>
      <use xlink:href="#DejaVuSans-69" x="569.966797"/>
      <use xlink:href="#DejaVuSans-65" x="597.75"/>
      <use xlink:href="#DejaVuSans-6e" x="659.273438"/>
      <use xlink:href="#DejaVuSans-74" x="722.652344"/>
      <use xlink:href="#DejaVuSans-61" x="761.861328"/>
      <use xlink:href="#DejaVuSans-6c" x="823.140625"/>
     </g>
    </g>
   </g>
  </g>
 </g>
 <defs>
  <clipPath id="pd2807aee6c">
   <rect x="144" y="69.12" width="892.8" height="443.52"/>
  </clipPath>
 </defs>
</svg>
