<?xml version="1.0" encoding="utf-8" standalone="no"?>
<!DOCTYPE svg PUBLIC "-//W3C//DTD SVG 1.1//EN"
  "http://www.w3.org/Graphics/SVG/1.1/DTD/svg11.dtd">
<svg xmlns:xlink="http://www.w3.org/1999/xlink" width="1152pt" height="576pt" viewBox="0 0 1152 576" xmlns="http://www.w3.org/2000/svg" version="1.1">
 <metadata>
  <rdf:RDF xmlns:dc="http://purl.org/dc/elements/1.1/" xmlns:cc="http://creativecommons.org/ns#" xmlns:rdf="http://www.w3.org/1999/02/22-rdf-syntax-ns#">
   <cc:Work>
    <dc:type rdf:resource="http://purl.org/dc/dcmitype/StillImage"/>
    <dc:date>2024-03-24T23:07:05.869686</dc:date>
    <dc:format>image/svg+xml</dc:format>
    <dc:creator>
     <cc:Agent>
      <dc:title>Matplotlib v3.7.1, https://matplotlib.org/</dc:title>
     </cc:Agent>
    </dc:creator>
   </cc:Work>
  </rdf:RDF>
 </metadata>
 <defs>
  <style type="text/css">*{stroke-linejoin: round; stroke-linecap: butt}</style>
 </defs>
 <g id="figure_1">
  <g id="patch_1">
   <path d="M 0 576 
L 1152 576 
L 1152 0 
L 0 0 
z
" style="fill: #ffffff"/>
  </g>
  <g id="axes_1">
   <g id="patch_2">
    <path d="M 144 512.64 
L 1036.8 512.64 
L 1036.8 69.12 
L 144 69.12 
z
" style="fill: #eaeaf2"/>
   </g>
   <g id="matplotlib.axis_1">
    <g id="xtick_1">
     <g id="text_1">
      <!-- 2005 -->
      <g style="fill: #262626" transform="translate(219.2825 530.498281) scale(0.11 -0.11)">
       <defs>
        <path id="DejaVuSans-32" d="M 1228 531 
L 3431 531 
L 3431 0 
L 469 0 
L 469 531 
Q 828 903 1448 1529 
Q 2069 2156 2228 2338 
Q 2531 2678 2651 2914 
Q 2772 3150 2772 3378 
Q 2772 3750 2511 3984 
Q 2250 4219 1831 4219 
Q 1534 4219 1204 4116 
Q 875 4013 500 3803 
L 500 4441 
Q 881 4594 1212 4672 
Q 1544 4750 1819 4750 
Q 2544 4750 2975 4387 
Q 3406 4025 3406 3419 
Q 3406 3131 3298 2873 
Q 3191 2616 2906 2266 
Q 2828 2175 2409 1742 
Q 1991 1309 1228 531 
z
" transform="scale(0.015625)"/>
        <path id="DejaVuSans-30" d="M 2034 4250 
Q 1547 4250 1301 3770 
Q 1056 3291 1056 2328 
Q 1056 1369 1301 889 
Q 1547 409 2034 409 
Q 2525 409 2770 889 
Q 3016 1369 3016 2328 
Q 3016 3291 2770 3770 
Q 2525 4250 2034 4250 
z
M 2034 4750 
Q 2819 4750 3233 4129 
Q 3647 3509 3647 2328 
Q 3647 1150 3233 529 
Q 2819 -91 2034 -91 
Q 1250 -91 836 529 
Q 422 1150 422 2328 
Q 422 3509 836 4129 
Q 1250 4750 2034 4750 
z
" transform="scale(0.015625)"/>
        <path id="DejaVuSans-35" d="M 691 4666 
L 3169 4666 
L 3169 4134 
L 1269 4134 
L 1269 2991 
Q 1406 3038 1543 3061 
Q 1681 3084 1819 3084 
Q 2600 3084 3056 2656 
Q 3513 2228 3513 1497 
Q 3513 744 3044 326 
Q 2575 -91 1722 -91 
Q 1428 -91 1123 -41 
Q 819 9 494 109 
L 494 744 
Q 775 591 1075 516 
Q 1375 441 1709 441 
Q 2250 441 2565 725 
Q 2881 1009 2881 1497 
Q 2881 1984 2565 2268 
Q 2250 2553 1709 2553 
Q 1456 2553 1204 2497 
Q 953 2441 691 2322 
L 691 4666 
z
" transform="scale(0.015625)"/>
       </defs>
       <use xlink:href="#DejaVuSans-32"/>
       <use xlink:href="#DejaVuSans-30" x="63.623047"/>
       <use xlink:href="#DejaVuSans-30" x="127.246094"/>
       <use xlink:href="#DejaVuSans-35" x="190.869141"/>
      </g>
     </g>
    </g>
    <g id="xtick_2">
     <g id="text_2">
      <!-- 2008 -->
      <g style="fill: #262626" transform="translate(397.8425 530.498281) scale(0.11 -0.11)">
       <defs>
        <path id="DejaVuSans-38" d="M 2034 2216 
Q 1584 2216 1326 1975 
Q 1069 1734 1069 1313 
Q 1069 891 1326 650 
Q 1584 409 2034 409 
Q 2484 409 2743 651 
Q 3003 894 3003 1313 
Q 3003 1734 2745 1975 
Q 2488 2216 2034 2216 
z
M 1403 2484 
Q 997 2584 770 2862 
Q 544 3141 544 3541 
Q 544 4100 942 4425 
Q 1341 4750 2034 4750 
Q 2731 4750 3128 4425 
Q 3525 4100 3525 3541 
Q 3525 3141 3298 2862 
Q 3072 2584 2669 2484 
Q 3125 2378 3379 2068 
Q 3634 1759 3634 1313 
Q 3634 634 3220 271 
Q 2806 -91 2034 -91 
Q 1263 -91 848 271 
Q 434 634 434 1313 
Q 434 1759 690 2068 
Q 947 2378 1403 2484 
z
M 1172 3481 
Q 1172 3119 1398 2916 
Q 1625 2713 2034 2713 
Q 2441 2713 2670 2916 
Q 2900 3119 2900 3481 
Q 2900 3844 2670 4047 
Q 2441 4250 2034 4250 
Q 1625 4250 1398 4047 
Q 1172 3844 1172 3481 
z
" transform="scale(0.015625)"/>
       </defs>
       <use xlink:href="#DejaVuSans-32"/>
       <use xlink:href="#DejaVuSans-30" x="63.623047"/>
       <use xlink:href="#DejaVuSans-30" x="127.246094"/>
       <use xlink:href="#DejaVuSans-38" x="190.869141"/>
      </g>
     </g>
    </g>
    <g id="xtick_3">
     <g id="text_3">
      <!-- 2011 -->
      <g style="fill: #262626" transform="translate(576.4025 530.498281) scale(0.11 -0.11)">
       <defs>
        <path id="DejaVuSans-31" d="M 794 531 
L 1825 531 
L 1825 4091 
L 703 3866 
L 703 4441 
L 1819 4666 
L 2450 4666 
L 2450 531 
L 3481 531 
L 3481 0 
L 794 0 
L 794 531 
z
" transform="scale(0.015625)"/>
       </defs>
       <use xlink:href="#DejaVuSans-32"/>
       <use xlink:href="#DejaVuSans-30" x="63.623047"/>
       <use xlink:href="#DejaVuSans-31" x="127.246094"/>
       <use xlink:href="#DejaVuSans-31" x="190.869141"/>
      </g>
     </g>
    </g>
    <g id="xtick_4">
     <g id="text_4">
      <!-- 2014 -->
      <g style="fill: #262626" transform="translate(754.9625 530.498281) scale(0.11 -0.11)">
       <defs>
        <path id="DejaVuSans-34" d="M 2419 4116 
L 825 1625 
L 2419 1625 
L 2419 4116 
z
M 2253 4666 
L 3047 4666 
L 3047 1625 
L 3713 1625 
L 3713 1100 
L 3047 1100 
L 3047 0 
L 2419 0 
L 2419 1100 
L 313 1100 
L 313 1709 
L 2253 4666 
z
" transform="scale(0.015625)"/>
       </defs>
       <use xlink:href="#DejaVuSans-32"/>
       <use xlink:href="#DejaVuSans-30" x="63.623047"/>
       <use xlink:href="#DejaVuSans-31" x="127.246094"/>
       <use xlink:href="#DejaVuSans-34" x="190.869141"/>
      </g>
     </g>
    </g>
    <g id="xtick_5">
     <g id="text_5">
      <!-- 2017 -->
      <g style="fill: #262626" transform="translate(933.5225 530.498281) scale(0.11 -0.11)">
       <defs>
        <path id="DejaVuSans-37" d="M 525 4666 
L 3525 4666 
L 3525 4397 
L 1831 0 
L 1172 0 
L 2766 4134 
L 525 4134 
L 525 4666 
z
" transform="scale(0.015625)"/>
       </defs>
       <use xlink:href="#DejaVuSans-32"/>
       <use xlink:href="#DejaVuSans-30" x="63.623047"/>
       <use xlink:href="#DejaVuSans-31" x="127.246094"/>
       <use xlink:href="#DejaVuSans-37" x="190.869141"/>
      </g>
     </g>
    </g>
    <g id="text_6">
     <!-- Ano -->
     <g style="fill: #262626" transform="translate(576.892187 547.42375) scale(0.14 -0.14)">
      <defs>
       <path id="DejaVuSans-41" d="M 2188 4044 
L 1331 1722 
L 3047 1722 
L 2188 4044 
z
M 1831 4666 
L 2547 4666 
L 4325 0 
L 3669 0 
L 3244 1197 
L 1141 1197 
L 716 0 
L 50 0 
L 1831 4666 
z
" transform="scale(0.015625)"/>
       <path id="DejaVuSans-6e" d="M 3513 2113 
L 3513 0 
L 2938 0 
L 2938 2094 
Q 2938 2591 2744 2837 
Q 2550 3084 2163 3084 
Q 1697 3084 1428 2787 
Q 1159 2491 1159 1978 
L 1159 0 
L 581 0 
L 581 3500 
L 1159 3500 
L 1159 2956 
Q 1366 3272 1645 3428 
Q 1925 3584 2291 3584 
Q 2894 3584 3203 3211 
Q 3513 2838 3513 2113 
z
" transform="scale(0.015625)"/>
       <path id="DejaVuSans-6f" d="M 1959 3097 
Q 1497 3097 1228 2736 
Q 959 2375 959 1747 
Q 959 1119 1226 758 
Q 1494 397 1959 397 
Q 2419 397 2687 759 
Q 2956 1122 2956 1747 
Q 2956 2369 2687 2733 
Q 2419 3097 1959 3097 
z
M 1959 3584 
Q 2709 3584 3137 3096 
Q 3566 2609 3566 1747 
Q 3566 888 3137 398 
Q 2709 -91 1959 -91 
Q 1206 -91 779 398 
Q 353 888 353 1747 
Q 353 2609 779 3096 
Q 1206 3584 1959 3584 
z
" transform="scale(0.015625)"/>
      </defs>
      <use xlink:href="#DejaVuSans-41"/>
      <use xlink:href="#DejaVuSans-6e" x="68.408203"/>
      <use xlink:href="#DejaVuSans-6f" x="131.787109"/>
     </g>
    </g>
   </g>
   <g id="matplotlib.axis_2">
    <g id="ytick_1">
     <g id="line2d_1">
      <path d="M 144 512.64 
L 1036.8 512.64 
" clip-path="url(#pdecfebec79)" style="fill: none; stroke: #ffffff; stroke-linecap: round"/>
     </g>
     <g id="text_7">
      <!-- 0 -->
      <g style="fill: #262626" transform="translate(127.50125 516.819141) scale(0.11 -0.11)">
       <use xlink:href="#DejaVuSans-30"/>
      </g>
     </g>
    </g>
    <g id="ytick_2">
     <g id="line2d_2">
      <path d="M 144 449.68918 
L 1036.8 449.68918 
" clip-path="url(#pdecfebec79)" style="fill: none; stroke: #ffffff; stroke-linecap: round"/>
     </g>
     <g id="text_8">
      <!-- 200 -->
      <g style="fill: #262626" transform="translate(113.50375 453.868321) scale(0.11 -0.11)">
       <use xlink:href="#DejaVuSans-32"/>
       <use xlink:href="#DejaVuSans-30" x="63.623047"/>
       <use xlink:href="#DejaVuSans-30" x="127.246094"/>
      </g>
     </g>
    </g>
    <g id="ytick_3">
     <g id="line2d_3">
      <path d="M 144 386.738361 
L 1036.8 386.738361 
" clip-path="url(#pdecfebec79)" style="fill: none; stroke: #ffffff; stroke-linecap: round"/>
     </g>
     <g id="text_9">
      <!-- 400 -->
      <g style="fill: #262626" transform="translate(113.50375 390.917501) scale(0.11 -0.11)">
       <use xlink:href="#DejaVuSans-34"/>
       <use xlink:href="#DejaVuSans-30" x="63.623047"/>
       <use xlink:href="#DejaVuSans-30" x="127.246094"/>
      </g>
     </g>
    </g>
    <g id="ytick_4">
     <g id="line2d_4">
      <path d="M 144 323.787541 
L 1036.8 323.787541 
" clip-path="url(#pdecfebec79)" style="fill: none; stroke: #ffffff; stroke-linecap: round"/>
     </g>
     <g id="text_10">
      <!-- 600 -->
      <g style="fill: #262626" transform="translate(113.50375 327.966682) scale(0.11 -0.11)">
       <defs>
        <path id="DejaVuSans-36" d="M 2113 2584 
Q 1688 2584 1439 2293 
Q 1191 2003 1191 1497 
Q 1191 994 1439 701 
Q 1688 409 2113 409 
Q 2538 409 2786 701 
Q 3034 994 3034 1497 
Q 3034 2003 2786 2293 
Q 2538 2584 2113 2584 
z
M 3366 4563 
L 3366 3988 
Q 3128 4100 2886 4159 
Q 2644 4219 2406 4219 
Q 1781 4219 1451 3797 
Q 1122 3375 1075 2522 
Q 1259 2794 1537 2939 
Q 1816 3084 2150 3084 
Q 2853 3084 3261 2657 
Q 3669 2231 3669 1497 
Q 3669 778 3244 343 
Q 2819 -91 2113 -91 
Q 1303 -91 875 529 
Q 447 1150 447 2328 
Q 447 3434 972 4092 
Q 1497 4750 2381 4750 
Q 2619 4750 2861 4703 
Q 3103 4656 3366 4563 
z
" transform="scale(0.015625)"/>
       </defs>
       <use xlink:href="#DejaVuSans-36"/>
       <use xlink:href="#DejaVuSans-30" x="63.623047"/>
       <use xlink:href="#DejaVuSans-30" x="127.246094"/>
      </g>
     </g>
    </g>
    <g id="ytick_5">
     <g id="line2d_5">
      <path d="M 144 260.836721 
L 1036.8 260.836721 
" clip-path="url(#pdecfebec79)" style="fill: none; stroke: #ffffff; stroke-linecap: round"/>
     </g>
     <g id="text_11">
      <!-- 800 -->
      <g style="fill: #262626" transform="translate(113.50375 265.015862) scale(0.11 -0.11)">
       <use xlink:href="#DejaVuSans-38"/>
       <use xlink:href="#DejaVuSans-30" x="63.623047"/>
       <use xlink:href="#DejaVuSans-30" x="127.246094"/>
      </g>
     </g>
    </g>
    <g id="ytick_6">
     <g id="line2d_6">
      <path d="M 144 197.885902 
L 1036.8 197.885902 
" clip-path="url(#pdecfebec79)" style="fill: none; stroke: #ffffff; stroke-linecap: round"/>
     </g>
     <g id="text_12">
      <!-- 1.000 -->
      <g style="fill: #262626" transform="translate(103.009062 202.065042) scale(0.11 -0.11)">
       <defs>
        <path id="DejaVuSans-2e" d="M 684 794 
L 1344 794 
L 1344 0 
L 684 0 
L 684 794 
z
" transform="scale(0.015625)"/>
       </defs>
       <use xlink:href="#DejaVuSans-31"/>
       <use xlink:href="#DejaVuSans-2e" x="63.623047"/>
       <use xlink:href="#DejaVuSans-30" x="95.410156"/>
       <use xlink:href="#DejaVuSans-30" x="159.033203"/>
       <use xlink:href="#DejaVuSans-30" x="222.65625"/>
      </g>
     </g>
    </g>
    <g id="ytick_7">
     <g id="line2d_7">
      <path d="M 144 134.935082 
L 1036.8 134.935082 
" clip-path="url(#pdecfebec79)" style="fill: none; stroke: #ffffff; stroke-linecap: round"/>
     </g>
     <g id="text_13">
      <!-- 1.200 -->
      <g style="fill: #262626" transform="translate(103.009062 139.114223) scale(0.11 -0.11)">
       <use xlink:href="#DejaVuSans-31"/>
       <use xlink:href="#DejaVuSans-2e" x="63.623047"/>
       <use xlink:href="#DejaVuSans-32" x="95.410156"/>
       <use xlink:href="#DejaVuSans-30" x="159.033203"/>
       <use xlink:href="#DejaVuSans-30" x="222.65625"/>
      </g>
     </g>
    </g>
    <g id="ytick_8">
     <g id="line2d_8">
      <path d="M 144 71.984262 
L 1036.8 71.984262 
" clip-path="url(#pdecfebec79)" style="fill: none; stroke: #ffffff; stroke-linecap: round"/>
     </g>
     <g id="text_14">
      <!-- 1.400 -->
      <g style="fill: #262626" transform="translate(103.009062 76.163403) scale(0.11 -0.11)">
       <use xlink:href="#DejaVuSans-31"/>
       <use xlink:href="#DejaVuSans-2e" x="63.623047"/>
       <use xlink:href="#DejaVuSans-34" x="95.410156"/>
       <use xlink:href="#DejaVuSans-30" x="159.033203"/>
       <use xlink:href="#DejaVuSans-30" x="222.65625"/>
      </g>
     </g>
    </g>
    <g id="text_15">
     <!-- Número de Alunos de Química por Renda Familiar -->
     <g style="fill: #262626" transform="translate(96.0975 465.212813) rotate(-90) scale(0.14 -0.14)">
      <defs>
       <path id="DejaVuSans-4e" d="M 628 4666 
L 1478 4666 
L 3547 763 
L 3547 4666 
L 4159 4666 
L 4159 0 
L 3309 0 
L 1241 3903 
L 1241 0 
L 628 0 
L 628 4666 
z
" transform="scale(0.015625)"/>
       <path id="DejaVuSans-fa" d="M 544 1381 
L 544 3500 
L 1119 3500 
L 1119 1403 
Q 1119 906 1312 657 
Q 1506 409 1894 409 
Q 2359 409 2629 706 
Q 2900 1003 2900 1516 
L 2900 3500 
L 3475 3500 
L 3475 0 
L 2900 0 
L 2900 538 
Q 2691 219 2414 64 
Q 2138 -91 1772 -91 
Q 1169 -91 856 284 
Q 544 659 544 1381 
z
M 1991 3584 
L 1991 3584 
z
M 2418 5119 
L 3040 5119 
L 2022 3944 
L 1543 3944 
L 2418 5119 
z
" transform="scale(0.015625)"/>
       <path id="DejaVuSans-6d" d="M 3328 2828 
Q 3544 3216 3844 3400 
Q 4144 3584 4550 3584 
Q 5097 3584 5394 3201 
Q 5691 2819 5691 2113 
L 5691 0 
L 5113 0 
L 5113 2094 
Q 5113 2597 4934 2840 
Q 4756 3084 4391 3084 
Q 3944 3084 3684 2787 
Q 3425 2491 3425 1978 
L 3425 0 
L 2847 0 
L 2847 2094 
Q 2847 2600 2669 2842 
Q 2491 3084 2119 3084 
Q 1678 3084 1418 2786 
Q 1159 2488 1159 1978 
L 1159 0 
L 581 0 
L 581 3500 
L 1159 3500 
L 1159 2956 
Q 1356 3278 1631 3431 
Q 1906 3584 2284 3584 
Q 2666 3584 2933 3390 
Q 3200 3197 3328 2828 
z
" transform="scale(0.015625)"/>
       <path id="DejaVuSans-65" d="M 3597 1894 
L 3597 1613 
L 953 1613 
Q 991 1019 1311 708 
Q 1631 397 2203 397 
Q 2534 397 2845 478 
Q 3156 559 3463 722 
L 3463 178 
Q 3153 47 2828 -22 
Q 2503 -91 2169 -91 
Q 1331 -91 842 396 
Q 353 884 353 1716 
Q 353 2575 817 3079 
Q 1281 3584 2069 3584 
Q 2775 3584 3186 3129 
Q 3597 2675 3597 1894 
z
M 3022 2063 
Q 3016 2534 2758 2815 
Q 2500 3097 2075 3097 
Q 1594 3097 1305 2825 
Q 1016 2553 972 2059 
L 3022 2063 
z
" transform="scale(0.015625)"/>
       <path id="DejaVuSans-72" d="M 2631 2963 
Q 2534 3019 2420 3045 
Q 2306 3072 2169 3072 
Q 1681 3072 1420 2755 
Q 1159 2438 1159 1844 
L 1159 0 
L 581 0 
L 581 3500 
L 1159 3500 
L 1159 2956 
Q 1341 3275 1631 3429 
Q 1922 3584 2338 3584 
Q 2397 3584 2469 3576 
Q 2541 3569 2628 3553 
L 2631 2963 
z
" transform="scale(0.015625)"/>
       <path id="DejaVuSans-20" transform="scale(0.015625)"/>
       <path id="DejaVuSans-64" d="M 2906 2969 
L 2906 4863 
L 3481 4863 
L 3481 0 
L 2906 0 
L 2906 525 
Q 2725 213 2448 61 
Q 2172 -91 1784 -91 
Q 1150 -91 751 415 
Q 353 922 353 1747 
Q 353 2572 751 3078 
Q 1150 3584 1784 3584 
Q 2172 3584 2448 3432 
Q 2725 3281 2906 2969 
z
M 947 1747 
Q 947 1113 1208 752 
Q 1469 391 1925 391 
Q 2381 391 2643 752 
Q 2906 1113 2906 1747 
Q 2906 2381 2643 2742 
Q 2381 3103 1925 3103 
Q 1469 3103 1208 2742 
Q 947 2381 947 1747 
z
" transform="scale(0.015625)"/>
       <path id="DejaVuSans-6c" d="M 603 4863 
L 1178 4863 
L 1178 0 
L 603 0 
L 603 4863 
z
" transform="scale(0.015625)"/>
       <path id="DejaVuSans-75" d="M 544 1381 
L 544 3500 
L 1119 3500 
L 1119 1403 
Q 1119 906 1312 657 
Q 1506 409 1894 409 
Q 2359 409 2629 706 
Q 2900 1003 2900 1516 
L 2900 3500 
L 3475 3500 
L 3475 0 
L 2900 0 
L 2900 538 
Q 2691 219 2414 64 
Q 2138 -91 1772 -91 
Q 1169 -91 856 284 
Q 544 659 544 1381 
z
M 1991 3584 
L 1991 3584 
z
" transform="scale(0.015625)"/>
       <path id="DejaVuSans-73" d="M 2834 3397 
L 2834 2853 
Q 2591 2978 2328 3040 
Q 2066 3103 1784 3103 
Q 1356 3103 1142 2972 
Q 928 2841 928 2578 
Q 928 2378 1081 2264 
Q 1234 2150 1697 2047 
L 1894 2003 
Q 2506 1872 2764 1633 
Q 3022 1394 3022 966 
Q 3022 478 2636 193 
Q 2250 -91 1575 -91 
Q 1294 -91 989 -36 
Q 684 19 347 128 
L 347 722 
Q 666 556 975 473 
Q 1284 391 1588 391 
Q 1994 391 2212 530 
Q 2431 669 2431 922 
Q 2431 1156 2273 1281 
Q 2116 1406 1581 1522 
L 1381 1569 
Q 847 1681 609 1914 
Q 372 2147 372 2553 
Q 372 3047 722 3315 
Q 1072 3584 1716 3584 
Q 2034 3584 2315 3537 
Q 2597 3491 2834 3397 
z
" transform="scale(0.015625)"/>
       <path id="DejaVuSans-51" d="M 2522 4238 
Q 1834 4238 1429 3725 
Q 1025 3213 1025 2328 
Q 1025 1447 1429 934 
Q 1834 422 2522 422 
Q 3209 422 3611 934 
Q 4013 1447 4013 2328 
Q 4013 3213 3611 3725 
Q 3209 4238 2522 4238 
z
M 3406 84 
L 4238 -825 
L 3475 -825 
L 2784 -78 
Q 2681 -84 2626 -87 
Q 2572 -91 2522 -91 
Q 1538 -91 948 567 
Q 359 1225 359 2328 
Q 359 3434 948 4092 
Q 1538 4750 2522 4750 
Q 3503 4750 4090 4092 
Q 4678 3434 4678 2328 
Q 4678 1516 4351 937 
Q 4025 359 3406 84 
z
" transform="scale(0.015625)"/>
       <path id="DejaVuSans-ed" d="M 1322 5119 
L 1944 5119 
L 926 3944 
L 447 3944 
L 1322 5119 
z
M 603 3500 
L 1178 3500 
L 1178 0 
L 603 0 
L 603 3500 
z
M 891 3584 
L 891 3584 
z
" transform="scale(0.015625)"/>
       <path id="DejaVuSans-69" d="M 603 3500 
L 1178 3500 
L 1178 0 
L 603 0 
L 603 3500 
z
M 603 4863 
L 1178 4863 
L 1178 4134 
L 603 4134 
L 603 4863 
z
" transform="scale(0.015625)"/>
       <path id="DejaVuSans-63" d="M 3122 3366 
L 3122 2828 
Q 2878 2963 2633 3030 
Q 2388 3097 2138 3097 
Q 1578 3097 1268 2742 
Q 959 2388 959 1747 
Q 959 1106 1268 751 
Q 1578 397 2138 397 
Q 2388 397 2633 464 
Q 2878 531 3122 666 
L 3122 134 
Q 2881 22 2623 -34 
Q 2366 -91 2075 -91 
Q 1284 -91 818 406 
Q 353 903 353 1747 
Q 353 2603 823 3093 
Q 1294 3584 2113 3584 
Q 2378 3584 2631 3529 
Q 2884 3475 3122 3366 
z
" transform="scale(0.015625)"/>
       <path id="DejaVuSans-61" d="M 2194 1759 
Q 1497 1759 1228 1600 
Q 959 1441 959 1056 
Q 959 750 1161 570 
Q 1363 391 1709 391 
Q 2188 391 2477 730 
Q 2766 1069 2766 1631 
L 2766 1759 
L 2194 1759 
z
M 3341 1997 
L 3341 0 
L 2766 0 
L 2766 531 
Q 2569 213 2275 61 
Q 1981 -91 1556 -91 
Q 1019 -91 701 211 
Q 384 513 384 1019 
Q 384 1609 779 1909 
Q 1175 2209 1959 2209 
L 2766 2209 
L 2766 2266 
Q 2766 2663 2505 2880 
Q 2244 3097 1772 3097 
Q 1472 3097 1187 3025 
Q 903 2953 641 2809 
L 641 3341 
Q 956 3463 1253 3523 
Q 1550 3584 1831 3584 
Q 2591 3584 2966 3190 
Q 3341 2797 3341 1997 
z
" transform="scale(0.015625)"/>
       <path id="DejaVuSans-70" d="M 1159 525 
L 1159 -1331 
L 581 -1331 
L 581 3500 
L 1159 3500 
L 1159 2969 
Q 1341 3281 1617 3432 
Q 1894 3584 2278 3584 
Q 2916 3584 3314 3078 
Q 3713 2572 3713 1747 
Q 3713 922 3314 415 
Q 2916 -91 2278 -91 
Q 1894 -91 1617 61 
Q 1341 213 1159 525 
z
M 3116 1747 
Q 3116 2381 2855 2742 
Q 2594 3103 2138 3103 
Q 1681 3103 1420 2742 
Q 1159 2381 1159 1747 
Q 1159 1113 1420 752 
Q 1681 391 2138 391 
Q 2594 391 2855 752 
Q 3116 1113 3116 1747 
z
" transform="scale(0.015625)"/>
       <path id="DejaVuSans-52" d="M 2841 2188 
Q 3044 2119 3236 1894 
Q 3428 1669 3622 1275 
L 4263 0 
L 3584 0 
L 2988 1197 
Q 2756 1666 2539 1819 
Q 2322 1972 1947 1972 
L 1259 1972 
L 1259 0 
L 628 0 
L 628 4666 
L 2053 4666 
Q 2853 4666 3247 4331 
Q 3641 3997 3641 3322 
Q 3641 2881 3436 2590 
Q 3231 2300 2841 2188 
z
M 1259 4147 
L 1259 2491 
L 2053 2491 
Q 2509 2491 2742 2702 
Q 2975 2913 2975 3322 
Q 2975 3731 2742 3939 
Q 2509 4147 2053 4147 
L 1259 4147 
z
" transform="scale(0.015625)"/>
       <path id="DejaVuSans-46" d="M 628 4666 
L 3309 4666 
L 3309 4134 
L 1259 4134 
L 1259 2759 
L 3109 2759 
L 3109 2228 
L 1259 2228 
L 1259 0 
L 628 0 
L 628 4666 
z
" transform="scale(0.015625)"/>
      </defs>
      <use xlink:href="#DejaVuSans-4e"/>
      <use xlink:href="#DejaVuSans-fa" x="74.804688"/>
      <use xlink:href="#DejaVuSans-6d" x="138.183594"/>
      <use xlink:href="#DejaVuSans-65" x="235.595703"/>
      <use xlink:href="#DejaVuSans-72" x="297.119141"/>
      <use xlink:href="#DejaVuSans-6f" x="335.982422"/>
      <use xlink:href="#DejaVuSans-20" x="397.164062"/>
      <use xlink:href="#DejaVuSans-64" x="428.951172"/>
      <use xlink:href="#DejaVuSans-65" x="492.427734"/>
      <use xlink:href="#DejaVuSans-20" x="553.951172"/>
      <use xlink:href="#DejaVuSans-41" x="585.738281"/>
      <use xlink:href="#DejaVuSans-6c" x="654.146484"/>
      <use xlink:href="#DejaVuSans-75" x="681.929688"/>
      <use xlink:href="#DejaVuSans-6e" x="745.308594"/>
      <use xlink:href="#DejaVuSans-6f" x="808.6875"/>
      <use xlink:href="#DejaVuSans-73" x="869.869141"/>
      <use xlink:href="#DejaVuSans-20" x="921.96875"/>
      <use xlink:href="#DejaVuSans-64" x="953.755859"/>
      <use xlink:href="#DejaVuSans-65" x="1017.232422"/>
      <use xlink:href="#DejaVuSans-20" x="1078.755859"/>
      <use xlink:href="#DejaVuSans-51" x="1110.542969"/>
      <use xlink:href="#DejaVuSans-75" x="1189.253906"/>
      <use xlink:href="#DejaVuSans-ed" x="1252.632812"/>
      <use xlink:href="#DejaVuSans-6d" x="1280.416016"/>
      <use xlink:href="#DejaVuSans-69" x="1377.828125"/>
      <use xlink:href="#DejaVuSans-63" x="1405.611328"/>
      <use xlink:href="#DejaVuSans-61" x="1460.591797"/>
      <use xlink:href="#DejaVuSans-20" x="1521.871094"/>
      <use xlink:href="#DejaVuSans-70" x="1553.658203"/>
      <use xlink:href="#DejaVuSans-6f" x="1617.134766"/>
      <use xlink:href="#DejaVuSans-72" x="1678.316406"/>
      <use xlink:href="#DejaVuSans-20" x="1719.429688"/>
      <use xlink:href="#DejaVuSans-52" x="1751.216797"/>
      <use xlink:href="#DejaVuSans-65" x="1816.199219"/>
      <use xlink:href="#DejaVuSans-6e" x="1877.722656"/>
      <use xlink:href="#DejaVuSans-64" x="1941.101562"/>
      <use xlink:href="#DejaVuSans-61" x="2004.578125"/>
      <use xlink:href="#DejaVuSans-20" x="2065.857422"/>
      <use xlink:href="#DejaVuSans-46" x="2097.644531"/>
      <use xlink:href="#DejaVuSans-61" x="2146.039062"/>
      <use xlink:href="#DejaVuSans-6d" x="2207.318359"/>
      <use xlink:href="#DejaVuSans-69" x="2304.730469"/>
      <use xlink:href="#DejaVuSans-6c" x="2332.513672"/>
      <use xlink:href="#DejaVuSans-69" x="2360.296875"/>
      <use xlink:href="#DejaVuSans-61" x="2388.080078"/>
      <use xlink:href="#DejaVuSans-72" x="2449.359375"/>
     </g>
    </g>
   </g>
   <g id="patch_3">
    <path d="M 518.976 512.64 
L 536.832 512.64 
L 536.832 500.994098 
L 518.976 500.994098 
z
" clip-path="url(#pdecfebec79)" style="fill: #dfdf20; stroke: #ffffff; stroke-linejoin: miter"/>
   </g>
   <g id="patch_4">
    <path d="M 697.536 512.64 
L 715.392 512.64 
L 715.392 491.236721 
L 697.536 491.236721 
z
" clip-path="url(#pdecfebec79)" style="fill: #dfdf20; stroke: #ffffff; stroke-linejoin: miter"/>
   </g>
   <g id="patch_5">
    <path d="M 876.096 512.64 
L 893.952 512.64 
L 893.952 462.594098 
L 876.096 462.594098 
z
" clip-path="url(#pdecfebec79)" style="fill: #dfdf20; stroke: #ffffff; stroke-linejoin: miter"/>
   </g>
   <g id="patch_6">
    <path d="M 536.832 512.64 
L 554.688 512.64 
L 554.688 488.718689 
L 536.832 488.718689 
z
" clip-path="url(#pdecfebec79)" style="fill: #701070; stroke: #ffffff; stroke-linejoin: miter"/>
   </g>
   <g id="patch_7">
    <path d="M 715.392 512.64 
L 733.248 512.64 
L 733.248 452.836721 
L 715.392 452.836721 
z
" clip-path="url(#pdecfebec79)" style="fill: #701070; stroke: #ffffff; stroke-linejoin: miter"/>
   </g>
   <g id="patch_8">
    <path d="M 893.952 512.64 
L 911.808 512.64 
L 911.808 434.26623 
L 893.952 434.26623 
z
" clip-path="url(#pdecfebec79)" style="fill: #701070; stroke: #ffffff; stroke-linejoin: miter"/>
   </g>
   <g id="patch_9">
    <path d="M 197.568 512.64 
L 215.424 512.64 
L 215.424 439.617049 
L 197.568 439.617049 
z
" clip-path="url(#pdecfebec79)" style="stroke: #ffffff; stroke-linejoin: miter"/>
   </g>
   <g id="patch_10">
    <path d="M 376.128 512.64 
L 393.984 512.64 
L 393.984 244.154754 
L 376.128 244.154754 
z
" clip-path="url(#pdecfebec79)" style="stroke: #ffffff; stroke-linejoin: miter"/>
   </g>
   <g id="patch_11">
    <path d="M 572.544 512.64 
L 590.4 512.64 
L 590.4 464.797377 
L 572.544 464.797377 
z
" clip-path="url(#pdecfebec79)" style="fill: #808080; stroke: #ffffff; stroke-linejoin: miter"/>
   </g>
   <g id="patch_12">
    <path d="M 751.104 512.64 
L 768.96 512.64 
L 768.96 446.226885 
L 751.104 446.226885 
z
" clip-path="url(#pdecfebec79)" style="fill: #808080; stroke: #ffffff; stroke-linejoin: miter"/>
   </g>
   <g id="patch_13">
    <path d="M 929.664 512.64 
L 947.52 512.64 
L 947.52 432.062951 
L 929.664 432.062951 
z
" clip-path="url(#pdecfebec79)" style="fill: #808080; stroke: #ffffff; stroke-linejoin: miter"/>
   </g>
   <g id="patch_14">
    <path d="M 233.28 512.64 
L 251.136 512.64 
L 251.136 303.643279 
L 233.28 303.643279 
z
" clip-path="url(#pdecfebec79)" style="fill: #2020df; stroke: #ffffff; stroke-linejoin: miter"/>
   </g>
   <g id="patch_15">
    <path d="M 411.84 512.64 
L 429.696 512.64 
L 429.696 90.24 
L 411.84 90.24 
z
" clip-path="url(#pdecfebec79)" style="fill: #2020df; stroke: #ffffff; stroke-linejoin: miter"/>
   </g>
   <g id="patch_16">
    <path d="M 608.256 512.64 
L 626.112 512.64 
L 626.112 487.459672 
L 608.256 487.459672 
z
" clip-path="url(#pdecfebec79)" style="fill: #df2020; stroke: #ffffff; stroke-linejoin: miter"/>
   </g>
   <g id="patch_17">
    <path d="M 786.816 512.64 
L 804.672 512.64 
L 804.672 492.495738 
L 786.816 492.495738 
z
" clip-path="url(#pdecfebec79)" style="fill: #df2020; stroke: #ffffff; stroke-linejoin: miter"/>
   </g>
   <g id="patch_18">
    <path d="M 965.376 512.64 
L 983.232 512.64 
L 983.232 492.495738 
L 965.376 492.495738 
z
" clip-path="url(#pdecfebec79)" style="fill: #df2020; stroke: #ffffff; stroke-linejoin: miter"/>
   </g>
   <g id="patch_19">
    <path d="M 268.992 512.64 
L 286.848 512.64 
L 286.848 451.892459 
L 268.992 451.892459 
z
" clip-path="url(#pdecfebec79)" style="fill: #df9c20; stroke: #ffffff; stroke-linejoin: miter"/>
   </g>
   <g id="patch_20">
    <path d="M 447.552 512.64 
L 465.408 512.64 
L 465.408 413.807213 
L 447.552 413.807213 
z
" clip-path="url(#pdecfebec79)" style="fill: #df9c20; stroke: #ffffff; stroke-linejoin: miter"/>
   </g>
   <g id="patch_21">
    <path d="M 626.112 512.64 
L 643.968 512.64 
L 643.968 501.938361 
L 626.112 501.938361 
z
" clip-path="url(#pdecfebec79)" style="fill: #df9c20; stroke: #ffffff; stroke-linejoin: miter"/>
   </g>
   <g id="patch_22">
    <path d="M 804.672 512.64 
L 822.528 512.64 
L 822.528 505.400656 
L 804.672 505.400656 
z
" clip-path="url(#pdecfebec79)" style="fill: #df9c20; stroke: #ffffff; stroke-linejoin: miter"/>
   </g>
   <g id="patch_23">
    <path d="M 983.232 512.64 
L 1001.088 512.64 
L 1001.088 506.344918 
L 983.232 506.344918 
z
" clip-path="url(#pdecfebec79)" style="fill: #df9c20; stroke: #ffffff; stroke-linejoin: miter"/>
   </g>
   <g id="patch_24">
    <path d="M 286.848 512.64 
L 304.704 512.64 
L 304.704 508.862951 
L 286.848 508.862951 
z
" clip-path="url(#pdecfebec79)" style="fill: #107010; stroke: #ffffff; stroke-linejoin: miter"/>
   </g>
   <g id="patch_25">
    <path d="M 465.408 512.64 
L 483.264 512.64 
L 483.264 504.456393 
L 465.408 504.456393 
z
" clip-path="url(#pdecfebec79)" style="fill: #107010; stroke: #ffffff; stroke-linejoin: miter"/>
   </g>
   <g id="patch_26">
    <path d="M 643.968 512.64 
L 661.824 512.64 
L 661.824 511.380984 
L 643.968 511.380984 
z
" clip-path="url(#pdecfebec79)" style="fill: #107010; stroke: #ffffff; stroke-linejoin: miter"/>
   </g>
   <g id="patch_27">
    <path d="M 1001.088 512.64 
L 1018.944 512.64 
L 1018.944 512.325246 
L 1001.088 512.325246 
z
" clip-path="url(#pdecfebec79)" style="fill: #107010; stroke: #ffffff; stroke-linejoin: miter"/>
   </g>
   <g id="patch_28">
    <path d="M 233.28 512.64 
L 233.28 512.64 
L 233.28 512.64 
L 233.28 512.64 
z
" clip-path="url(#pdecfebec79)" style="fill: #dfdf20; stroke: #ffffff; stroke-linejoin: miter"/>
   </g>
   <g id="patch_29">
    <path d="M 233.28 512.64 
L 233.28 512.64 
L 233.28 512.64 
L 233.28 512.64 
z
" clip-path="url(#pdecfebec79)" style="fill: #701070; stroke: #ffffff; stroke-linejoin: miter"/>
   </g>
   <g id="patch_30">
    <path d="M 233.28 512.64 
L 233.28 512.64 
L 233.28 512.64 
L 233.28 512.64 
z
" clip-path="url(#pdecfebec79)" style="stroke: #ffffff; stroke-linejoin: miter"/>
   </g>
   <g id="patch_31">
    <path d="M 233.28 512.64 
L 233.28 512.64 
L 233.28 512.64 
L 233.28 512.64 
z
" clip-path="url(#pdecfebec79)" style="fill: #808080; stroke: #ffffff; stroke-linejoin: miter"/>
   </g>
   <g id="patch_32">
    <path d="M 233.28 512.64 
L 233.28 512.64 
L 233.28 512.64 
L 233.28 512.64 
z
" clip-path="url(#pdecfebec79)" style="fill: #2020df; stroke: #ffffff; stroke-linejoin: miter"/>
   </g>
   <g id="patch_33">
    <path d="M 233.28 512.64 
L 233.28 512.64 
L 233.28 512.64 
L 233.28 512.64 
z
" clip-path="url(#pdecfebec79)" style="fill: #df2020; stroke: #ffffff; stroke-linejoin: miter"/>
   </g>
   <g id="patch_34">
    <path d="M 233.28 512.64 
L 233.28 512.64 
L 233.28 512.64 
L 233.28 512.64 
z
" clip-path="url(#pdecfebec79)" style="fill: #df9c20; stroke: #ffffff; stroke-linejoin: miter"/>
   </g>
   <g id="patch_35">
    <path d="M 233.28 512.64 
L 233.28 512.64 
L 233.28 512.64 
L 233.28 512.64 
z
" clip-path="url(#pdecfebec79)" style="fill: #107010; stroke: #ffffff; stroke-linejoin: miter"/>
   </g>
   <g id="line2d_9">
    <path clip-path="url(#pdecfebec79)" style="fill: none; stroke: #424242; stroke-width: 2.25; stroke-linecap: round"/>
   </g>
   <g id="line2d_10">
    <path clip-path="url(#pdecfebec79)" style="fill: none; stroke: #424242; stroke-width: 2.25; stroke-linecap: round"/>
   </g>
   <g id="line2d_11">
    <path clip-path="url(#pdecfebec79)" style="fill: none; stroke: #424242; stroke-width: 2.25; stroke-linecap: round"/>
   </g>
   <g id="line2d_12">
    <path clip-path="url(#pdecfebec79)" style="fill: none; stroke: #424242; stroke-width: 2.25; stroke-linecap: round"/>
   </g>
   <g id="line2d_13">
    <path clip-path="url(#pdecfebec79)" style="fill: none; stroke: #424242; stroke-width: 2.25; stroke-linecap: round"/>
   </g>
   <g id="line2d_14">
    <path clip-path="url(#pdecfebec79)" style="fill: none; stroke: #424242; stroke-width: 2.25; stroke-linecap: round"/>
   </g>
   <g id="line2d_15">
    <path clip-path="url(#pdecfebec79)" style="fill: none; stroke: #424242; stroke-width: 2.25; stroke-linecap: round"/>
   </g>
   <g id="line2d_16">
    <path clip-path="url(#pdecfebec79)" style="fill: none; stroke: #424242; stroke-width: 2.25; stroke-linecap: round"/>
   </g>
   <g id="line2d_17">
    <path clip-path="url(#pdecfebec79)" style="fill: none; stroke: #424242; stroke-width: 2.25; stroke-linecap: round"/>
   </g>
   <g id="line2d_18">
    <path clip-path="url(#pdecfebec79)" style="fill: none; stroke: #424242; stroke-width: 2.25; stroke-linecap: round"/>
   </g>
   <g id="line2d_19">
    <path clip-path="url(#pdecfebec79)" style="fill: none; stroke: #424242; stroke-width: 2.25; stroke-linecap: round"/>
   </g>
   <g id="line2d_20">
    <path clip-path="url(#pdecfebec79)" style="fill: none; stroke: #424242; stroke-width: 2.25; stroke-linecap: round"/>
   </g>
   <g id="line2d_21">
    <path clip-path="url(#pdecfebec79)" style="fill: none; stroke: #424242; stroke-width: 2.25; stroke-linecap: round"/>
   </g>
   <g id="line2d_22">
    <path clip-path="url(#pdecfebec79)" style="fill: none; stroke: #424242; stroke-width: 2.25; stroke-linecap: round"/>
   </g>
   <g id="line2d_23">
    <path clip-path="url(#pdecfebec79)" style="fill: none; stroke: #424242; stroke-width: 2.25; stroke-linecap: round"/>
   </g>
   <g id="line2d_24">
    <path clip-path="url(#pdecfebec79)" style="fill: none; stroke: #424242; stroke-width: 2.25; stroke-linecap: round"/>
   </g>
   <g id="line2d_25">
    <path clip-path="url(#pdecfebec79)" style="fill: none; stroke: #424242; stroke-width: 2.25; stroke-linecap: round"/>
   </g>
   <g id="line2d_26">
    <path clip-path="url(#pdecfebec79)" style="fill: none; stroke: #424242; stroke-width: 2.25; stroke-linecap: round"/>
   </g>
   <g id="line2d_27">
    <path clip-path="url(#pdecfebec79)" style="fill: none; stroke: #424242; stroke-width: 2.25; stroke-linecap: round"/>
   </g>
   <g id="line2d_28">
    <path clip-path="url(#pdecfebec79)" style="fill: none; stroke: #424242; stroke-width: 2.25; stroke-linecap: round"/>
   </g>
   <g id="line2d_29">
    <path clip-path="url(#pdecfebec79)" style="fill: none; stroke: #424242; stroke-width: 2.25; stroke-linecap: round"/>
   </g>
   <g id="line2d_30">
    <path clip-path="url(#pdecfebec79)" style="fill: none; stroke: #424242; stroke-width: 2.25; stroke-linecap: round"/>
   </g>
   <g id="line2d_31">
    <path clip-path="url(#pdecfebec79)" style="fill: none; stroke: #424242; stroke-width: 2.25; stroke-linecap: round"/>
   </g>
   <g id="line2d_32">
    <path clip-path="url(#pdecfebec79)" style="fill: none; stroke: #424242; stroke-width: 2.25; stroke-linecap: round"/>
   </g>
   <g id="line2d_33">
    <path clip-path="url(#pdecfebec79)" style="fill: none; stroke: #424242; stroke-width: 2.25; stroke-linecap: round"/>
   </g>
   <g id="line2d_34">
    <path d="M 322.56 512.64 
L 322.56 69.12 
" clip-path="url(#pdecfebec79)" style="fill: none; stroke-dasharray: 5.55,2.4; stroke-dashoffset: 0; stroke: #808080; stroke-width: 1.5"/>
   </g>
   <g id="line2d_35">
    <path d="M 501.12 512.64 
L 501.12 69.12 
" clip-path="url(#pdecfebec79)" style="fill: none; stroke-dasharray: 5.55,2.4; stroke-dashoffset: 0; stroke: #808080; stroke-width: 1.5"/>
   </g>
   <g id="line2d_36">
    <path d="M 679.68 512.64 
L 679.68 69.12 
" clip-path="url(#pdecfebec79)" style="fill: none; stroke-dasharray: 5.55,2.4; stroke-dashoffset: 0; stroke: #808080; stroke-width: 1.5"/>
   </g>
   <g id="line2d_37">
    <path d="M 858.24 512.64 
L 858.24 69.12 
" clip-path="url(#pdecfebec79)" style="fill: none; stroke-dasharray: 5.55,2.4; stroke-dashoffset: 0; stroke: #808080; stroke-width: 1.5"/>
   </g>
   <g id="patch_36">
    <path d="M 144 512.64 
L 144 69.12 
" style="fill: none; stroke: #ffffff; stroke-width: 1.25; stroke-linejoin: miter; stroke-linecap: square"/>
   </g>
   <g id="patch_37">
    <path d="M 1036.8 512.64 
L 1036.8 69.12 
" style="fill: none; stroke: #ffffff; stroke-width: 1.25; stroke-linejoin: miter; stroke-linecap: square"/>
   </g>
   <g id="patch_38">
    <path d="M 144 512.64 
L 1036.8 512.64 
" style="fill: none; stroke: #ffffff; stroke-width: 1.25; stroke-linejoin: miter; stroke-linecap: square"/>
   </g>
   <g id="patch_39">
    <path d="M 144 69.12 
L 1036.8 69.12 
" style="fill: none; stroke: #ffffff; stroke-width: 1.25; stroke-linejoin: miter; stroke-linecap: square"/>
   </g>
   <g id="text_16">
    <!-- Cursos: Química, Química Industrial E Tecnológica -->
    <g style="fill: #262626" transform="translate(452.869922 564.682513) scale(0.11 -0.11)">
     <defs>
      <path id="DejaVuSans-43" d="M 4122 4306 
L 4122 3641 
Q 3803 3938 3442 4084 
Q 3081 4231 2675 4231 
Q 1875 4231 1450 3742 
Q 1025 3253 1025 2328 
Q 1025 1406 1450 917 
Q 1875 428 2675 428 
Q 3081 428 3442 575 
Q 3803 722 4122 1019 
L 4122 359 
Q 3791 134 3420 21 
Q 3050 -91 2638 -91 
Q 1578 -91 968 557 
Q 359 1206 359 2328 
Q 359 3453 968 4101 
Q 1578 4750 2638 4750 
Q 3056 4750 3426 4639 
Q 3797 4528 4122 4306 
z
" transform="scale(0.015625)"/>
      <path id="DejaVuSans-3a" d="M 750 794 
L 1409 794 
L 1409 0 
L 750 0 
L 750 794 
z
M 750 3309 
L 1409 3309 
L 1409 2516 
L 750 2516 
L 750 3309 
z
" transform="scale(0.015625)"/>
      <path id="DejaVuSans-2c" d="M 750 794 
L 1409 794 
L 1409 256 
L 897 -744 
L 494 -744 
L 750 256 
L 750 794 
z
" transform="scale(0.015625)"/>
      <path id="DejaVuSans-49" d="M 628 4666 
L 1259 4666 
L 1259 0 
L 628 0 
L 628 4666 
z
" transform="scale(0.015625)"/>
      <path id="DejaVuSans-74" d="M 1172 4494 
L 1172 3500 
L 2356 3500 
L 2356 3053 
L 1172 3053 
L 1172 1153 
Q 1172 725 1289 603 
Q 1406 481 1766 481 
L 2356 481 
L 2356 0 
L 1766 0 
Q 1100 0 847 248 
Q 594 497 594 1153 
L 594 3053 
L 172 3053 
L 172 3500 
L 594 3500 
L 594 4494 
L 1172 4494 
z
" transform="scale(0.015625)"/>
      <path id="DejaVuSans-45" d="M 628 4666 
L 3578 4666 
L 3578 4134 
L 1259 4134 
L 1259 2753 
L 3481 2753 
L 3481 2222 
L 1259 2222 
L 1259 531 
L 3634 531 
L 3634 0 
L 628 0 
L 628 4666 
z
" transform="scale(0.015625)"/>
      <path id="DejaVuSans-54" d="M -19 4666 
L 3928 4666 
L 3928 4134 
L 2272 4134 
L 2272 0 
L 1638 0 
L 1638 4134 
L -19 4134 
L -19 4666 
z
" transform="scale(0.015625)"/>
      <path id="DejaVuSans-f3" d="M 1959 3097 
Q 1497 3097 1228 2736 
Q 959 2375 959 1747 
Q 959 1119 1226 758 
Q 1494 397 1959 397 
Q 2419 397 2687 759 
Q 2956 1122 2956 1747 
Q 2956 2369 2687 2733 
Q 2419 3097 1959 3097 
z
M 1959 3584 
Q 2709 3584 3137 3096 
Q 3566 2609 3566 1747 
Q 3566 888 3137 398 
Q 2709 -91 1959 -91 
Q 1206 -91 779 398 
Q 353 888 353 1747 
Q 353 2609 779 3096 
Q 1206 3584 1959 3584 
z
M 2394 5119 
L 3016 5119 
L 1998 3944 
L 1519 3944 
L 2394 5119 
z
" transform="scale(0.015625)"/>
      <path id="DejaVuSans-67" d="M 2906 1791 
Q 2906 2416 2648 2759 
Q 2391 3103 1925 3103 
Q 1463 3103 1205 2759 
Q 947 2416 947 1791 
Q 947 1169 1205 825 
Q 1463 481 1925 481 
Q 2391 481 2648 825 
Q 2906 1169 2906 1791 
z
M 3481 434 
Q 3481 -459 3084 -895 
Q 2688 -1331 1869 -1331 
Q 1566 -1331 1297 -1286 
Q 1028 -1241 775 -1147 
L 775 -588 
Q 1028 -725 1275 -790 
Q 1522 -856 1778 -856 
Q 2344 -856 2625 -561 
Q 2906 -266 2906 331 
L 2906 616 
Q 2728 306 2450 153 
Q 2172 0 1784 0 
Q 1141 0 747 490 
Q 353 981 353 1791 
Q 353 2603 747 3093 
Q 1141 3584 1784 3584 
Q 2172 3584 2450 3431 
Q 2728 3278 2906 2969 
L 2906 3500 
L 3481 3500 
L 3481 434 
z
" transform="scale(0.015625)"/>
     </defs>
     <use xlink:href="#DejaVuSans-43"/>
     <use xlink:href="#DejaVuSans-75" x="69.824219"/>
     <use xlink:href="#DejaVuSans-72" x="133.203125"/>
     <use xlink:href="#DejaVuSans-73" x="174.316406"/>
     <use xlink:href="#DejaVuSans-6f" x="226.416016"/>
     <use xlink:href="#DejaVuSans-73" x="287.597656"/>
     <use xlink:href="#DejaVuSans-3a" x="339.697266"/>
     <use xlink:href="#DejaVuSans-20" x="373.388672"/>
     <use xlink:href="#DejaVuSans-51" x="405.175781"/>
     <use xlink:href="#DejaVuSans-75" x="483.886719"/>
     <use xlink:href="#DejaVuSans-ed" x="547.265625"/>
     <use xlink:href="#DejaVuSans-6d" x="575.048828"/>
     <use xlink:href="#DejaVuSans-69" x="672.460938"/>
     <use xlink:href="#DejaVuSans-63" x="700.244141"/>
     <use xlink:href="#DejaVuSans-61" x="755.224609"/>
     <use xlink:href="#DejaVuSans-2c" x="816.503906"/>
     <use xlink:href="#DejaVuSans-20" x="848.291016"/>
     <use xlink:href="#DejaVuSans-51" x="880.078125"/>
     <use xlink:href="#DejaVuSans-75" x="958.789062"/>
     <use xlink:href="#DejaVuSans-ed" x="1022.167969"/>
     <use xlink:href="#DejaVuSans-6d" x="1049.951172"/>
     <use xlink:href="#DejaVuSans-69" x="1147.363281"/>
     <use xlink:href="#DejaVuSans-63" x="1175.146484"/>
     <use xlink:href="#DejaVuSans-61" x="1230.126953"/>
     <use xlink:href="#DejaVuSans-20" x="1291.40625"/>
     <use xlink:href="#DejaVuSans-49" x="1323.193359"/>
     <use xlink:href="#DejaVuSans-6e" x="1352.685547"/>
     <use xlink:href="#DejaVuSans-64" x="1416.064453"/>
     <use xlink:href="#DejaVuSans-75" x="1479.541016"/>
     <use xlink:href="#DejaVuSans-73" x="1542.919922"/>
     <use xlink:href="#DejaVuSans-74" x="1595.019531"/>
     <use xlink:href="#DejaVuSans-72" x="1634.228516"/>
     <use xlink:href="#DejaVuSans-69" x="1675.341797"/>
     <use xlink:href="#DejaVuSans-61" x="1703.125"/>
     <use xlink:href="#DejaVuSans-6c" x="1764.404297"/>
     <use xlink:href="#DejaVuSans-20" x="1792.1875"/>
     <use xlink:href="#DejaVuSans-45" x="1823.974609"/>
     <use xlink:href="#DejaVuSans-20" x="1887.158203"/>
     <use xlink:href="#DejaVuSans-54" x="1918.945312"/>
     <use xlink:href="#DejaVuSans-65" x="1963.029297"/>
     <use xlink:href="#DejaVuSans-63" x="2024.552734"/>
     <use xlink:href="#DejaVuSans-6e" x="2079.533203"/>
     <use xlink:href="#DejaVuSans-6f" x="2142.912109"/>
     <use xlink:href="#DejaVuSans-6c" x="2204.09375"/>
     <use xlink:href="#DejaVuSans-f3" x="2231.876953"/>
     <use xlink:href="#DejaVuSans-67" x="2293.058594"/>
     <use xlink:href="#DejaVuSans-69" x="2356.535156"/>
     <use xlink:href="#DejaVuSans-63" x="2384.318359"/>
     <use xlink:href="#DejaVuSans-61" x="2439.298828"/>
    </g>
   </g>
   <g id="text_17">
    <!-- Alunos de Química com Ação Afirmativa por Renda Familiar por Ano -->
    <g style="fill: #262626" transform="translate(318.93375 63.12) scale(0.16 -0.16)">
     <defs>
      <path id="DejaVuSans-e7" d="M 3122 3366 
L 3122 2828 
Q 2878 2963 2633 3030 
Q 2388 3097 2138 3097 
Q 1578 3097 1268 2742 
Q 959 2388 959 1747 
Q 959 1106 1268 751 
Q 1578 397 2138 397 
Q 2388 397 2633 464 
Q 2878 531 3122 666 
L 3122 134 
Q 2881 22 2623 -34 
Q 2366 -91 2075 -91 
Q 1284 -91 818 406 
Q 353 903 353 1747 
Q 353 2603 823 3093 
Q 1294 3584 2113 3584 
Q 2378 3584 2631 3529 
Q 2884 3475 3122 3366 
z
M 2311 0 
Q 2482 -194 2566 -358 
Q 2651 -522 2651 -672 
Q 2651 -950 2463 -1092 
Q 2276 -1234 1907 -1234 
Q 1764 -1234 1628 -1215 
Q 1492 -1197 1357 -1159 
L 1357 -750 
Q 1464 -803 1579 -826 
Q 1695 -850 1842 -850 
Q 2026 -850 2120 -775 
Q 2214 -700 2214 -556 
Q 2214 -463 2146 -327 
Q 2079 -191 1939 0 
L 2311 0 
z
" transform="scale(0.015625)"/>
      <path id="DejaVuSans-e3" d="M 2194 1759 
Q 1497 1759 1228 1600 
Q 959 1441 959 1056 
Q 959 750 1161 570 
Q 1363 391 1709 391 
Q 2188 391 2477 730 
Q 2766 1069 2766 1631 
L 2766 1759 
L 2194 1759 
z
M 3341 1997 
L 3341 0 
L 2766 0 
L 2766 531 
Q 2569 213 2275 61 
Q 1981 -91 1556 -91 
Q 1019 -91 701 211 
Q 384 513 384 1019 
Q 384 1609 779 1909 
Q 1175 2209 1959 2209 
L 2766 2209 
L 2766 2266 
Q 2766 2663 2505 2880 
Q 2244 3097 1772 3097 
Q 1472 3097 1187 3025 
Q 903 2953 641 2809 
L 641 3341 
Q 956 3463 1253 3523 
Q 1550 3584 1831 3584 
Q 2591 3584 2966 3190 
Q 3341 2797 3341 1997 
z
M 1844 4281 
L 1665 4453 
Q 1597 4516 1545 4545 
Q 1494 4575 1453 4575 
Q 1334 4575 1278 4461 
Q 1222 4347 1215 4091 
L 825 4091 
Q 831 4513 990 4742 
Q 1150 4972 1434 4972 
Q 1553 4972 1653 4928 
Q 1753 4884 1869 4781 
L 2047 4609 
Q 2115 4547 2167 4517 
Q 2219 4488 2259 4488 
Q 2378 4488 2434 4602 
Q 2490 4716 2497 4972 
L 2887 4972 
Q 2881 4550 2721 4320 
Q 2562 4091 2278 4091 
Q 2159 4091 2059 4134 
Q 1959 4178 1844 4281 
z
" transform="scale(0.015625)"/>
      <path id="DejaVuSans-66" d="M 2375 4863 
L 2375 4384 
L 1825 4384 
Q 1516 4384 1395 4259 
Q 1275 4134 1275 3809 
L 1275 3500 
L 2222 3500 
L 2222 3053 
L 1275 3053 
L 1275 0 
L 697 0 
L 697 3053 
L 147 3053 
L 147 3500 
L 697 3500 
L 697 3744 
Q 697 4328 969 4595 
Q 1241 4863 1831 4863 
L 2375 4863 
z
" transform="scale(0.015625)"/>
      <path id="DejaVuSans-76" d="M 191 3500 
L 800 3500 
L 1894 563 
L 2988 3500 
L 3597 3500 
L 2284 0 
L 1503 0 
L 191 3500 
z
" transform="scale(0.015625)"/>
     </defs>
     <use xlink:href="#DejaVuSans-41"/>
     <use xlink:href="#DejaVuSans-6c" x="68.408203"/>
     <use xlink:href="#DejaVuSans-75" x="96.191406"/>
     <use xlink:href="#DejaVuSans-6e" x="159.570312"/>
     <use xlink:href="#DejaVuSans-6f" x="222.949219"/>
     <use xlink:href="#DejaVuSans-73" x="284.130859"/>
     <use xlink:href="#DejaVuSans-20" x="336.230469"/>
     <use xlink:href="#DejaVuSans-64" x="368.017578"/>
     <use xlink:href="#DejaVuSans-65" x="431.494141"/>
     <use xlink:href="#DejaVuSans-20" x="493.017578"/>
     <use xlink:href="#DejaVuSans-51" x="524.804688"/>
     <use xlink:href="#DejaVuSans-75" x="603.515625"/>
     <use xlink:href="#DejaVuSans-ed" x="666.894531"/>
     <use xlink:href="#DejaVuSans-6d" x="694.677734"/>
     <use xlink:href="#DejaVuSans-69" x="792.089844"/>
     <use xlink:href="#DejaVuSans-63" x="819.873047"/>
     <use xlink:href="#DejaVuSans-61" x="874.853516"/>
     <use xlink:href="#DejaVuSans-20" x="936.132812"/>
     <use xlink:href="#DejaVuSans-63" x="967.919922"/>
     <use xlink:href="#DejaVuSans-6f" x="1022.900391"/>
     <use xlink:href="#DejaVuSans-6d" x="1084.082031"/>
     <use xlink:href="#DejaVuSans-20" x="1181.494141"/>
     <use xlink:href="#DejaVuSans-41" x="1213.28125"/>
     <use xlink:href="#DejaVuSans-e7" x="1279.939453"/>
     <use xlink:href="#DejaVuSans-e3" x="1334.919922"/>
     <use xlink:href="#DejaVuSans-6f" x="1396.199219"/>
     <use xlink:href="#DejaVuSans-20" x="1457.380859"/>
     <use xlink:href="#DejaVuSans-41" x="1489.167969"/>
     <use xlink:href="#DejaVuSans-66" x="1553.951172"/>
     <use xlink:href="#DejaVuSans-69" x="1589.15625"/>
     <use xlink:href="#DejaVuSans-72" x="1616.939453"/>
     <use xlink:href="#DejaVuSans-6d" x="1656.302734"/>
     <use xlink:href="#DejaVuSans-61" x="1753.714844"/>
     <use xlink:href="#DejaVuSans-74" x="1814.994141"/>
     <use xlink:href="#DejaVuSans-69" x="1854.203125"/>
     <use xlink:href="#DejaVuSans-76" x="1881.986328"/>
     <use xlink:href="#DejaVuSans-61" x="1941.166016"/>
     <use xlink:href="#DejaVuSans-20" x="2002.445312"/>
     <use xlink:href="#DejaVuSans-70" x="2034.232422"/>
     <use xlink:href="#DejaVuSans-6f" x="2097.708984"/>
     <use xlink:href="#DejaVuSans-72" x="2158.890625"/>
     <use xlink:href="#DejaVuSans-20" x="2200.003906"/>
     <use xlink:href="#DejaVuSans-52" x="2231.791016"/>
     <use xlink:href="#DejaVuSans-65" x="2296.773438"/>
     <use xlink:href="#DejaVuSans-6e" x="2358.296875"/>
     <use xlink:href="#DejaVuSans-64" x="2421.675781"/>
     <use xlink:href="#DejaVuSans-61" x="2485.152344"/>
     <use xlink:href="#DejaVuSans-20" x="2546.431641"/>
     <use xlink:href="#DejaVuSans-46" x="2578.21875"/>
     <use xlink:href="#DejaVuSans-61" x="2626.613281"/>
     <use xlink:href="#DejaVuSans-6d" x="2687.892578"/>
     <use xlink:href="#DejaVuSans-69" x="2785.304688"/>
     <use xlink:href="#DejaVuSans-6c" x="2813.087891"/>
     <use xlink:href="#DejaVuSans-69" x="2840.871094"/>
     <use xlink:href="#DejaVuSans-61" x="2868.654297"/>
     <use xlink:href="#DejaVuSans-72" x="2929.933594"/>
     <use xlink:href="#DejaVuSans-20" x="2971.046875"/>
     <use xlink:href="#DejaVuSans-70" x="3002.833984"/>
     <use xlink:href="#DejaVuSans-6f" x="3066.310547"/>
     <use xlink:href="#DejaVuSans-72" x="3127.492188"/>
     <use xlink:href="#DejaVuSans-20" x="3168.605469"/>
     <use xlink:href="#DejaVuSans-41" x="3200.392578"/>
     <use xlink:href="#DejaVuSans-6e" x="3268.800781"/>
     <use xlink:href="#DejaVuSans-6f" x="3332.179688"/>
    </g>
   </g>
   <g id="legend_1">
    <g id="patch_40">
     <path d="M 1044.5 365.670625 
L 1160.132344 365.670625 
Q 1162.332344 365.670625 1162.332344 363.470625 
L 1162.332344 218.289375 
Q 1162.332344 216.089375 1160.132344 216.089375 
L 1044.5 216.089375 
Q 1042.3 216.089375 1042.3 218.289375 
L 1042.3 363.470625 
Q 1042.3 365.670625 1044.5 365.670625 
z
" style="fill: #eaeaf2; opacity: 0.8; stroke: #cccccc; stroke-linejoin: miter"/>
    </g>
    <g id="text_18">
     <!-- Renda familiar -->
     <g style="fill: #262626" transform="translate(1058.752422 229.6075) scale(0.12 -0.12)">
      <use xlink:href="#DejaVuSans-52"/>
      <use xlink:href="#DejaVuSans-65" x="64.982422"/>
      <use xlink:href="#DejaVuSans-6e" x="126.505859"/>
      <use xlink:href="#DejaVuSans-64" x="189.884766"/>
      <use xlink:href="#DejaVuSans-61" x="253.361328"/>
      <use xlink:href="#DejaVuSans-20" x="314.640625"/>
      <use xlink:href="#DejaVuSans-66" x="346.427734"/>
      <use xlink:href="#DejaVuSans-61" x="381.632812"/>
      <use xlink:href="#DejaVuSans-6d" x="442.912109"/>
      <use xlink:href="#DejaVuSans-69" x="540.324219"/>
      <use xlink:href="#DejaVuSans-6c" x="568.107422"/>
      <use xlink:href="#DejaVuSans-69" x="595.890625"/>
      <use xlink:href="#DejaVuSans-61" x="623.673828"/>
      <use xlink:href="#DejaVuSans-72" x="684.953125"/>
     </g>
    </g>
    <g id="patch_41">
     <path d="M 1046.7 245.961406 
L 1068.7 245.961406 
L 1068.7 238.261406 
L 1046.7 238.261406 
z
" style="fill: #dfdf20; stroke: #ffffff; stroke-linejoin: miter"/>
    </g>
    <g id="text_19">
     <!-- Até 1,5 SM -->
     <g style="fill: #262626" transform="translate(1077.5 245.961406) scale(0.11 -0.11)">
      <defs>
       <path id="DejaVuSans-e9" d="M 3597 1894 
L 3597 1613 
L 953 1613 
Q 991 1019 1311 708 
Q 1631 397 2203 397 
Q 2534 397 2845 478 
Q 3156 559 3463 722 
L 3463 178 
Q 3153 47 2828 -22 
Q 2503 -91 2169 -91 
Q 1331 -91 842 396 
Q 353 884 353 1716 
Q 353 2575 817 3079 
Q 1281 3584 2069 3584 
Q 2775 3584 3186 3129 
Q 3597 2675 3597 1894 
z
M 3022 2063 
Q 3016 2534 2758 2815 
Q 2500 3097 2075 3097 
Q 1594 3097 1305 2825 
Q 1016 2553 972 2059 
L 3022 2063 
z
M 2466 5119 
L 3088 5119 
L 2070 3944 
L 1591 3944 
L 2466 5119 
z
" transform="scale(0.015625)"/>
       <path id="DejaVuSans-53" d="M 3425 4513 
L 3425 3897 
Q 3066 4069 2747 4153 
Q 2428 4238 2131 4238 
Q 1616 4238 1336 4038 
Q 1056 3838 1056 3469 
Q 1056 3159 1242 3001 
Q 1428 2844 1947 2747 
L 2328 2669 
Q 3034 2534 3370 2195 
Q 3706 1856 3706 1288 
Q 3706 609 3251 259 
Q 2797 -91 1919 -91 
Q 1588 -91 1214 -16 
Q 841 59 441 206 
L 441 856 
Q 825 641 1194 531 
Q 1563 422 1919 422 
Q 2459 422 2753 634 
Q 3047 847 3047 1241 
Q 3047 1584 2836 1778 
Q 2625 1972 2144 2069 
L 1759 2144 
Q 1053 2284 737 2584 
Q 422 2884 422 3419 
Q 422 4038 858 4394 
Q 1294 4750 2059 4750 
Q 2388 4750 2728 4690 
Q 3069 4631 3425 4513 
z
" transform="scale(0.015625)"/>
       <path id="DejaVuSans-4d" d="M 628 4666 
L 1569 4666 
L 2759 1491 
L 3956 4666 
L 4897 4666 
L 4897 0 
L 4281 0 
L 4281 4097 
L 3078 897 
L 2444 897 
L 1241 4097 
L 1241 0 
L 628 0 
L 628 4666 
z
" transform="scale(0.015625)"/>
      </defs>
      <use xlink:href="#DejaVuSans-41"/>
      <use xlink:href="#DejaVuSans-74" x="66.658203"/>
      <use xlink:href="#DejaVuSans-e9" x="105.867188"/>
      <use xlink:href="#DejaVuSans-20" x="167.390625"/>
      <use xlink:href="#DejaVuSans-31" x="199.177734"/>
      <use xlink:href="#DejaVuSans-2c" x="262.800781"/>
      <use xlink:href="#DejaVuSans-35" x="294.587891"/>
      <use xlink:href="#DejaVuSans-20" x="358.210938"/>
      <use xlink:href="#DejaVuSans-53" x="389.998047"/>
      <use xlink:href="#DejaVuSans-4d" x="453.474609"/>
     </g>
    </g>
    <g id="patch_42">
     <path d="M 1046.7 262.107344 
L 1068.7 262.107344 
L 1068.7 254.407344 
L 1046.7 254.407344 
z
" style="fill: #701070; stroke: #ffffff; stroke-linejoin: miter"/>
    </g>
    <g id="text_20">
     <!-- De 1,5 a 3 SM -->
     <g style="fill: #262626" transform="translate(1077.5 262.107344) scale(0.11 -0.11)">
      <defs>
       <path id="DejaVuSans-44" d="M 1259 4147 
L 1259 519 
L 2022 519 
Q 2988 519 3436 956 
Q 3884 1394 3884 2338 
Q 3884 3275 3436 3711 
Q 2988 4147 2022 4147 
L 1259 4147 
z
M 628 4666 
L 1925 4666 
Q 3281 4666 3915 4102 
Q 4550 3538 4550 2338 
Q 4550 1131 3912 565 
Q 3275 0 1925 0 
L 628 0 
L 628 4666 
z
" transform="scale(0.015625)"/>
       <path id="DejaVuSans-33" d="M 2597 2516 
Q 3050 2419 3304 2112 
Q 3559 1806 3559 1356 
Q 3559 666 3084 287 
Q 2609 -91 1734 -91 
Q 1441 -91 1130 -33 
Q 819 25 488 141 
L 488 750 
Q 750 597 1062 519 
Q 1375 441 1716 441 
Q 2309 441 2620 675 
Q 2931 909 2931 1356 
Q 2931 1769 2642 2001 
Q 2353 2234 1838 2234 
L 1294 2234 
L 1294 2753 
L 1863 2753 
Q 2328 2753 2575 2939 
Q 2822 3125 2822 3475 
Q 2822 3834 2567 4026 
Q 2313 4219 1838 4219 
Q 1578 4219 1281 4162 
Q 984 4106 628 3988 
L 628 4550 
Q 988 4650 1302 4700 
Q 1616 4750 1894 4750 
Q 2613 4750 3031 4423 
Q 3450 4097 3450 3541 
Q 3450 3153 3228 2886 
Q 3006 2619 2597 2516 
z
" transform="scale(0.015625)"/>
      </defs>
      <use xlink:href="#DejaVuSans-44"/>
      <use xlink:href="#DejaVuSans-65" x="77.001953"/>
      <use xlink:href="#DejaVuSans-20" x="138.525391"/>
      <use xlink:href="#DejaVuSans-31" x="170.3125"/>
      <use xlink:href="#DejaVuSans-2c" x="233.935547"/>
      <use xlink:href="#DejaVuSans-35" x="265.722656"/>
      <use xlink:href="#DejaVuSans-20" x="329.345703"/>
      <use xlink:href="#DejaVuSans-61" x="361.132812"/>
      <use xlink:href="#DejaVuSans-20" x="422.412109"/>
      <use xlink:href="#DejaVuSans-33" x="454.199219"/>
      <use xlink:href="#DejaVuSans-20" x="517.822266"/>
      <use xlink:href="#DejaVuSans-53" x="549.609375"/>
      <use xlink:href="#DejaVuSans-4d" x="613.085938"/>
     </g>
    </g>
    <g id="patch_43">
     <path d="M 1046.7 278.253281 
L 1068.7 278.253281 
L 1068.7 270.553281 
L 1046.7 270.553281 
z
" style="stroke: #ffffff; stroke-linejoin: miter"/>
    </g>
    <g id="text_21">
     <!-- Até 3 SM -->
     <g style="fill: #262626" transform="translate(1077.5 278.253281) scale(0.11 -0.11)">
      <use xlink:href="#DejaVuSans-41"/>
      <use xlink:href="#DejaVuSans-74" x="66.658203"/>
      <use xlink:href="#DejaVuSans-e9" x="105.867188"/>
      <use xlink:href="#DejaVuSans-20" x="167.390625"/>
      <use xlink:href="#DejaVuSans-33" x="199.177734"/>
      <use xlink:href="#DejaVuSans-20" x="262.800781"/>
      <use xlink:href="#DejaVuSans-53" x="294.587891"/>
      <use xlink:href="#DejaVuSans-4d" x="358.064453"/>
     </g>
    </g>
    <g id="patch_44">
     <path d="M 1046.7 294.399219 
L 1068.7 294.399219 
L 1068.7 286.699219 
L 1046.7 286.699219 
z
" style="fill: #808080; stroke: #ffffff; stroke-linejoin: miter"/>
    </g>
    <g id="text_22">
     <!-- De 3 a 6 SM -->
     <g style="fill: #262626" transform="translate(1077.5 294.399219) scale(0.11 -0.11)">
      <use xlink:href="#DejaVuSans-44"/>
      <use xlink:href="#DejaVuSans-65" x="77.001953"/>
      <use xlink:href="#DejaVuSans-20" x="138.525391"/>
      <use xlink:href="#DejaVuSans-33" x="170.3125"/>
      <use xlink:href="#DejaVuSans-20" x="233.935547"/>
      <use xlink:href="#DejaVuSans-61" x="265.722656"/>
      <use xlink:href="#DejaVuSans-20" x="327.001953"/>
      <use xlink:href="#DejaVuSans-36" x="358.789062"/>
      <use xlink:href="#DejaVuSans-20" x="422.412109"/>
      <use xlink:href="#DejaVuSans-53" x="454.199219"/>
      <use xlink:href="#DejaVuSans-4d" x="517.675781"/>
     </g>
    </g>
    <g id="patch_45">
     <path d="M 1046.7 310.545156 
L 1068.7 310.545156 
L 1068.7 302.845156 
L 1046.7 302.845156 
z
" style="fill: #2020df; stroke: #ffffff; stroke-linejoin: miter"/>
    </g>
    <g id="text_23">
     <!-- De 3 a 10 SM -->
     <g style="fill: #262626" transform="translate(1077.5 310.545156) scale(0.11 -0.11)">
      <use xlink:href="#DejaVuSans-44"/>
      <use xlink:href="#DejaVuSans-65" x="77.001953"/>
      <use xlink:href="#DejaVuSans-20" x="138.525391"/>
      <use xlink:href="#DejaVuSans-33" x="170.3125"/>
      <use xlink:href="#DejaVuSans-20" x="233.935547"/>
      <use xlink:href="#DejaVuSans-61" x="265.722656"/>
      <use xlink:href="#DejaVuSans-20" x="327.001953"/>
      <use xlink:href="#DejaVuSans-31" x="358.789062"/>
      <use xlink:href="#DejaVuSans-30" x="422.412109"/>
      <use xlink:href="#DejaVuSans-20" x="486.035156"/>
      <use xlink:href="#DejaVuSans-53" x="517.822266"/>
      <use xlink:href="#DejaVuSans-4d" x="581.298828"/>
     </g>
    </g>
    <g id="patch_46">
     <path d="M 1046.7 326.691094 
L 1068.7 326.691094 
L 1068.7 318.991094 
L 1046.7 318.991094 
z
" style="fill: #df2020; stroke: #ffffff; stroke-linejoin: miter"/>
    </g>
    <g id="text_24">
     <!-- De 6 a 10 SM -->
     <g style="fill: #262626" transform="translate(1077.5 326.691094) scale(0.11 -0.11)">
      <use xlink:href="#DejaVuSans-44"/>
      <use xlink:href="#DejaVuSans-65" x="77.001953"/>
      <use xlink:href="#DejaVuSans-20" x="138.525391"/>
      <use xlink:href="#DejaVuSans-36" x="170.3125"/>
      <use xlink:href="#DejaVuSans-20" x="233.935547"/>
      <use xlink:href="#DejaVuSans-61" x="265.722656"/>
      <use xlink:href="#DejaVuSans-20" x="327.001953"/>
      <use xlink:href="#DejaVuSans-31" x="358.789062"/>
      <use xlink:href="#DejaVuSans-30" x="422.412109"/>
      <use xlink:href="#DejaVuSans-20" x="486.035156"/>
      <use xlink:href="#DejaVuSans-53" x="517.822266"/>
      <use xlink:href="#DejaVuSans-4d" x="581.298828"/>
     </g>
    </g>
    <g id="patch_47">
     <path d="M 1046.7 342.837031 
L 1068.7 342.837031 
L 1068.7 335.137031 
L 1046.7 335.137031 
z
" style="fill: #df9c20; stroke: #ffffff; stroke-linejoin: miter"/>
    </g>
    <g id="text_25">
     <!-- De 10 a 30 SM -->
     <g style="fill: #262626" transform="translate(1077.5 342.837031) scale(0.11 -0.11)">
      <use xlink:href="#DejaVuSans-44"/>
      <use xlink:href="#DejaVuSans-65" x="77.001953"/>
      <use xlink:href="#DejaVuSans-20" x="138.525391"/>
      <use xlink:href="#DejaVuSans-31" x="170.3125"/>
      <use xlink:href="#DejaVuSans-30" x="233.935547"/>
      <use xlink:href="#DejaVuSans-20" x="297.558594"/>
      <use xlink:href="#DejaVuSans-61" x="329.345703"/>
      <use xlink:href="#DejaVuSans-20" x="390.625"/>
      <use xlink:href="#DejaVuSans-33" x="422.412109"/>
      <use xlink:href="#DejaVuSans-30" x="486.035156"/>
      <use xlink:href="#DejaVuSans-20" x="549.658203"/>
      <use xlink:href="#DejaVuSans-53" x="581.445312"/>
      <use xlink:href="#DejaVuSans-4d" x="644.921875"/>
     </g>
    </g>
    <g id="patch_48">
     <path d="M 1046.7 358.982969 
L 1068.7 358.982969 
L 1068.7 351.282969 
L 1046.7 351.282969 
z
" style="fill: #107010; stroke: #ffffff; stroke-linejoin: miter"/>
    </g>
    <g id="text_26">
     <!-- Mais de 30 SM -->
     <g style="fill: #262626" transform="translate(1077.5 358.982969) scale(0.11 -0.11)">
      <use xlink:href="#DejaVuSans-4d"/>
      <use xlink:href="#DejaVuSans-61" x="86.279297"/>
      <use xlink:href="#DejaVuSans-69" x="147.558594"/>
      <use xlink:href="#DejaVuSans-73" x="175.341797"/>
      <use xlink:href="#DejaVuSans-20" x="227.441406"/>
      <use xlink:href="#DejaVuSans-64" x="259.228516"/>
      <use xlink:href="#DejaVuSans-65" x="322.705078"/>
      <use xlink:href="#DejaVuSans-20" x="384.228516"/>
      <use xlink:href="#DejaVuSans-33" x="416.015625"/>
      <use xlink:href="#DejaVuSans-30" x="479.638672"/>
      <use xlink:href="#DejaVuSans-20" x="543.261719"/>
      <use xlink:href="#DejaVuSans-53" x="575.048828"/>
      <use xlink:href="#DejaVuSans-4d" x="638.525391"/>
     </g>
    </g>
   </g>
  </g>
 </g>
 <defs>
  <clipPath id="pdecfebec79">
   <rect x="144" y="69.12" width="892.8" height="443.52"/>
  </clipPath>
 </defs>
</svg>
